<?xml version="1.0" encoding="UTF-8"?>
<svg id="f_mask" xmlns="http://www.w3.org/2000/svg" width="50.8mm" height="128.5mm" viewBox="0 0 144 364.25">
  <defs>
    <style>
      .cls-1 {
        fill: #231f20;
        stroke-width: 0px;
      }
    </style>
  </defs>
  <rect class="cls-1" x="130.04" y="290.27" width=".49" height="3.59"/>
  <rect class="cls-1" x="123.37" y="290.27" width=".49" height="3.59"/>
  <path class="cls-1" d="M126.16,292.34h1.13c-.01.42-.12.72-.32.91-.21.19-.47.28-.79.28-.42,0-.72-.13-.9-.4-.18-.26-.27-.61-.27-1.04,0-.49.11-.86.33-1.11.22-.25.49-.38.82-.38.27,0,.5.06.68.18s.3.31.36.58h.48c-.08-.47-.3-.8-.65-.99-.24-.13-.53-.19-.86-.19-.48,0-.88.17-1.18.5-.32.36-.48.84-.48,1.44s.16,1.07.49,1.42c.3.27.66.41,1.08.41.32,0,.59-.06.8-.18.12-.07.27-.19.43-.37l.11.46h.32v-1.92h-1.58v.4Z"/>
  <polygon class="cls-1" points="133.68 293.17 131.89 290.27 131.31 290.27 131.31 293.86 131.78 293.86 131.78 290.96 133.59 293.86 134.14 293.86 134.14 290.27 133.68 290.27 133.68 293.17"/>
  <polygon class="cls-1" points="116.39 255.05 117.51 255.05 116.96 253.46 116.39 255.05"/>
  <path class="cls-1" d="M7.94,292.64c.09-.15.16-.33.2-.56.02-.14.04-.26.04-.38,0-.44-.09-.79-.26-1.04-.17-.25-.45-.37-.83-.37h-.84v2.75h.85c.16,0,.29-.02.4-.05.18-.06.34-.19.45-.37Z"/>
  <polygon class="cls-1" points="116.29 290.7 117.5 290.7 117.5 293.86 117.99 293.86 117.99 290.7 119.2 290.7 119.2 290.27 116.29 290.27 116.29 290.7"/>
  <path class="cls-1" d="M134.49,133.42h-1.01v3.3h1.02c.19,0,.35-.02.48-.06.22-.08.4-.22.54-.44.11-.17.19-.4.24-.67.03-.16.04-.31.04-.45,0-.53-.1-.95-.31-1.24-.21-.29-.54-.44-1-.44Z"/>
  <path class="cls-1" d="M115.56,77.08c.24.33.63.49,1.17.49s.88-.18,1.11-.55.34-.79.34-1.27c0-.51-.13-.91-.4-1.22-.26-.31-.63-.46-1.08-.46s-.81.15-1.09.46c-.28.31-.42.76-.42,1.35,0,.48.12.88.36,1.21Z"/>
  <path class="cls-1" d="M56.77,18.08c.17.15.36.27.58.35s.46.13.71.13c.28,0,.55-.06.82-.17.26-.11.48-.27.66-.48v-2.18c-.18-.21-.4-.37-.66-.48-.26-.11-.54-.17-.82-.17-.26,0-.49.04-.71.13s-.41.2-.58.35c-.17.15-.3.33-.4.55-.1.21-.14.45-.14.71s.05.5.14.71c.1.21.23.39.4.55Z"/>
  <path class="cls-1" d="M87.97,15.64c-.3-.3-.6-.48-.91-.54-.3-.06-.64.02-1.02.23-.37.22-.61.47-.71.76-.1.29-.09.64.02,1.05l2.61-1.51Z"/>
  <polygon class="cls-1" points="42.31 13.05 42.28 13.05 41.21 16.52 43.49 16.52 42.31 13.05"/>
  <polygon class="cls-1" points="25.44 134.31 24.75 136.21 26.1 136.21 25.44 134.31"/>
  <polygon class="cls-1" points="111.96 192.86 111.27 194.76 112.62 194.76 111.96 192.86"/>
  <path class="cls-1" d="M103.98,18.06c.16.16.35.28.56.37.21.09.44.13.68.13s.47-.04.68-.13c.21-.09.4-.21.56-.37.16-.16.29-.34.39-.55s.14-.44.14-.69-.05-.48-.14-.69-.23-.4-.39-.55c-.16-.16-.35-.28-.56-.37s-.44-.13-.68-.13-.47.04-.68.13c-.21.09-.4.21-.56.37-.16.16-.29.34-.39.55-.1.21-.14.44-.14.69s.05.48.14.69c.1.21.23.4.39.55Z"/>
  <polygon class="cls-1" points="125.38 74.29 124.68 76.2 126.03 76.2 125.38 74.29"/>
  <path class="cls-1" d="M128.58,135.13c0,.48.12.88.36,1.21.24.33.63.49,1.17.49s.88-.18,1.11-.55.34-.79.34-1.27c0-.51-.13-.91-.4-1.22-.26-.31-.63-.46-1.08-.46s-.81.15-1.09.46c-.28.31-.42.76-.42,1.35Z"/>
  <path class="cls-1" d="M122.48,293.56c-.02-.07-.03-.17-.04-.31l-.02-.48c0-.21-.04-.36-.11-.45-.07-.09-.18-.17-.32-.23.16-.08.28-.19.37-.33.09-.13.14-.31.14-.52,0-.41-.17-.7-.5-.85-.17-.08-.4-.12-.67-.12h-1.62v3.59h.48v-1.54h1.08c.19,0,.33.02.42.06.16.08.24.24.25.48l.03.59c.01.14.02.24.03.29.01.05.02.09.04.12h.59v-.08c-.07-.04-.12-.11-.15-.22ZM121.81,291.78c-.13.09-.31.13-.53.13h-1.09v-1.22h1.15c.17,0,.29.02.39.07.18.09.27.27.27.52s-.06.41-.19.5Z"/>
  <path class="cls-1" d="M76.22,112.08c.26.31.64.46,1.15.46.12,0,.23,0,.34-.03.11-.02.2-.05.28-.1l-.48-.37.29-.36.56.44c.18-.2.3-.43.36-.68.06-.25.09-.49.09-.72,0-.51-.13-.91-.4-1.22s-.63-.46-1.09-.46-.83.15-1.1.44c-.27.3-.41.75-.41,1.37,0,.52.13.93.39,1.24Z"/>
  <path class="cls-1" d="M71.74,213.77c.51,0,.89-.18,1.11-.55.23-.37.34-.79.34-1.27,0-.51-.13-.91-.4-1.22-.26-.31-.63-.46-1.09-.46s-.81.15-1.09.46-.42.76-.42,1.35c0,.48.12.88.36,1.21s.63.49,1.17.49Z"/>
  <path class="cls-1" d="M54.69,253.64c-.22-.26-.52-.39-.9-.39s-.67.13-.91.38-.35.63-.35,1.13c0,.4.1.73.3,1,.2.27.53.41.98.41s.74-.15.93-.46c.19-.31.29-.66.29-1.06,0-.42-.11-.76-.33-1.02Z"/>
  <path class="cls-1" d="M79.63,27.21c-.11-.1-.23-.19-.38-.24-.14-.06-.29-.09-.45-.09s-.31.03-.45.09c-.14.06-.27.14-.38.24s-.2.23-.26.37c-.06.14-.1.29-.1.46s.03.32.1.46c.06.14.15.26.26.37s.24.19.38.24c.14.06.29.09.45.09s.31-.03.45-.09c.14-.06.27-.14.38-.24s.2-.23.26-.37c.06-.14.1-.29.1-.46s-.03-.32-.1-.46c-.06-.14-.15-.26-.26-.37Z"/>
  <path class="cls-1" d="M64.34,163.95c.51,0,.89-.18,1.11-.55s.34-.79.34-1.27c0-.51-.13-.91-.4-1.22-.26-.31-.63-.46-1.09-.46s-.81.15-1.09.46c-.28.31-.42.76-.42,1.35,0,.48.12.88.36,1.21.24.33.63.49,1.17.49Z"/>
  <path class="cls-1" d="M69.61,109.22c-.12-.06-.27-.09-.46-.09h-1.38v1.47h1.31c.27,0,.48-.05.63-.16s.23-.31.23-.59c0-.31-.11-.52-.32-.63Z"/>
  <path class="cls-1" d="M53.22,25.73c-.18-.17-.38-.3-.6-.4-.22-.1-.45-.14-.66-.14-.11,0-.19,0-.26.01-.07,0-.14.01-.22.02v3.78h.48c.21,0,.43-.04.66-.12.22-.08.43-.2.61-.36.18-.16.33-.36.44-.6s.17-.51.17-.83c0-.27-.06-.53-.17-.76-.11-.23-.26-.44-.44-.6Z"/>
  <path class="cls-1" d="M57.77,26.87c-.16,0-.31.03-.46.09-.14.06-.27.15-.38.25-.11.11-.19.23-.26.37-.06.14-.09.29-.09.44s.03.3.09.44c.06.14.15.27.26.37.11.11.24.19.38.25.14.06.3.09.46.09.21,0,.39-.04.56-.12.16-.08.31-.18.45-.3v-1.47c-.14-.12-.29-.22-.45-.3-.16-.08-.35-.12-.56-.12Z"/>
  <path class="cls-1" d="M92.2,28.86c.11.1.23.19.38.24.14.06.29.09.45.09s.31-.03.45-.09c.14-.06.27-.14.38-.24s.2-.23.26-.37c.06-.14.1-.29.1-.46s-.03-.32-.1-.46c-.06-.14-.15-.26-.26-.37s-.24-.19-.38-.24c-.14-.06-.29-.09-.45-.09s-.31.03-.45.09c-.14.06-.27.14-.38.24s-.2.23-.26.37c-.06.14-.1.29-.1.46s.03.32.1.46c.06.14.15.26.26.37Z"/>
  <path class="cls-1" d="M46.59,293.14c.43,0,.74-.15.93-.46.19-.31.29-.66.29-1.06,0-.42-.11-.76-.33-1.02-.22-.26-.52-.39-.9-.39s-.67.13-.91.38-.35.63-.35,1.13c0,.4.1.73.3,1,.2.27.53.41.98.41Z"/>
  <path class="cls-1" d="M101.41,26.84c-.2-.04-.43.01-.68.16-.25.14-.41.31-.47.51-.07.19-.06.43.01.7l1.74-1c-.2-.2-.4-.32-.6-.36Z"/>
  <path class="cls-1" d="M99.45,292.64c.09-.15.16-.33.2-.56.02-.14.04-.26.04-.38,0-.44-.09-.79-.26-1.04-.17-.25-.45-.37-.83-.37h-.84v2.75h.85c.16,0,.29-.02.4-.05.18-.06.34-.19.45-.37Z"/>
  <path class="cls-1" d="M105.08,75.46c.15-.11.23-.31.23-.59,0-.31-.11-.52-.33-.63-.12-.06-.27-.09-.46-.09h-1.38v1.47h1.31c.27,0,.48-.05.63-.16Z"/>
  <path class="cls-1" d="M73.81,105.34c.51,0,.88-.18,1.11-.55s.34-.79.34-1.27c0-.51-.13-.91-.4-1.22-.26-.31-.63-.46-1.08-.46s-.81.15-1.09.46c-.28.31-.42.76-.42,1.35,0,.48.12.88.36,1.21.24.33.63.49,1.17.49Z"/>
  <path class="cls-1" d="M94.95,293.14c.43,0,.74-.15.93-.46.19-.31.29-.66.29-1.06,0-.42-.11-.76-.33-1.02-.22-.26-.52-.39-.9-.39s-.67.13-.91.38-.35.63-.35,1.13c0,.4.1.73.3,1,.2.27.53.41.98.41Z"/>
  <path class="cls-1" d="M86.91,254.43c.13-.09.19-.26.19-.49,0-.26-.09-.43-.27-.52-.1-.05-.23-.07-.39-.07h-1.15v1.23h1.09c.22,0,.4-.05.53-.14Z"/>
  <path class="cls-1" d="M106.94,27.31c-.12-.14-.26-.25-.44-.32s-.36-.11-.54-.11c-.17,0-.33.03-.48.08-.15.06-.28.13-.39.24-.11.1-.2.22-.26.36-.06.14-.1.3-.1.48s.03.33.1.48c.06.14.15.26.26.36.11.1.24.18.39.24.15.06.31.08.48.08.19,0,.37-.04.54-.11s.32-.18.44-.32v-1.46Z"/>
  <path class="cls-1" d="M13.87,136.97c.11-.17.19-.4.24-.67.03-.16.04-.31.04-.45,0-.53-.1-.95-.31-1.24-.21-.29-.54-.44-1-.44h-1.01v3.3h1.02c.19,0,.35-.02.48-.06.22-.08.4-.22.54-.44Z"/>
  <polygon class="cls-1" points="91.1 336.81 91.68 336.81 91.68 333.02 93.12 333.02 93.12 332.5 89.66 332.5 89.66 333.02 91.1 333.02 91.1 336.81"/>
  <path class="cls-1" d="M87.45,336.92c.72,0,1.22-.26,1.48-.78.14-.28.22-.69.22-1.22v-2.41h-.58v2.66c0,.31-.05.55-.15.74-.18.33-.51.5-1,.5-.42,0-.7-.15-.88-.46-.12-.21-.18-.47-.18-.78v-2.66h-.58v2.41c0,.53.08.94.22,1.22.26.52.74.78,1.47.78Z"/>
  <polygon class="cls-1" points="97.91 336.3 95.77 336.3 95.77 332.5 95.19 332.5 95.19 336.81 97.91 336.81 97.91 336.3"/>
  <path class="cls-1" d="M82.93,336.94c.7,0,1.25-.25,1.62-.75.33-.43.49-.96.49-1.61,0-.59-.14-1.08-.43-1.46-.36-.49-.92-.73-1.67-.73-.71,0-1.26.26-1.62.8-.29.41-.44.91-.44,1.49,0,.64.17,1.18.5,1.6.38.44.89.66,1.54.66ZM81.9,333.37c.28-.31.63-.46,1.08-.46s.81.15,1.07.46c.27.31.4.72.4,1.22s-.11.91-.34,1.27c-.23.37-.59.56-1.11.56s-.92-.17-1.16-.49c-.24-.33-.36-.73-.36-1.21,0-.6.14-1.05.42-1.35Z"/>
  <polygon class="cls-1" points="127.8 336.81 128.38 336.81 128.38 333.02 129.82 333.02 129.82 332.5 126.36 332.5 126.36 333.02 127.8 333.02 127.8 336.81"/>
  <path class="cls-1" d="M119.63,336.94c.7,0,1.25-.25,1.62-.75.33-.43.49-.96.49-1.61,0-.59-.14-1.08-.43-1.46-.36-.49-.91-.73-1.66-.73s-1.27.26-1.63.8c-.29.41-.43.91-.43,1.49,0,.64.17,1.18.49,1.6.38.44.89.66,1.54.66ZM118.6,333.37c.28-.31.64-.46,1.08-.46s.81.15,1.08.46c.26.31.39.72.39,1.22s-.11.91-.34,1.27c-.23.37-.59.56-1.11.56s-.92-.17-1.16-.49c-.24-.33-.36-.73-.36-1.21,0-.6.14-1.05.42-1.35Z"/>
  <path class="cls-1" d="M132.54,334.96h1.28c.23,0,.4.03.5.08.19.1.29.29.3.57l.04.72c0,.16.02.28.03.34,0,.05.02.1.04.14h.71v-.1c-.09-.04-.15-.12-.19-.26-.02-.08-.03-.2-.04-.37l-.02-.57c0-.25-.06-.44-.14-.55-.09-.11-.21-.2-.38-.27.19-.1.34-.23.45-.39.1-.17.15-.38.15-.63,0-.5-.19-.84-.58-1.02-.21-.1-.48-.14-.79-.14h-1.93v4.3h.57v-1.85ZM132.54,333.01h1.37c.2,0,.35.03.47.08.21.12.32.32.32.63,0,.29-.07.48-.23.59-.15.11-.37.17-.62.17h-1.3v-1.47Z"/>
  <path class="cls-1" d="M0,0v364.25h144V0H0ZM139.47,75.49v.5h-2.36v1.46h2.6v.51h-3.17v-4.3h3.12v.53h-2.55v1.31h2.36ZM136.79,179.81l-3.41-1.97.12-.22,3.41,1.97-.12.22ZM91.14,293.47h-.48l-1.03-3.02v.11c0,.09,0,.22,0,.4,0,.18,0,.31,0,.4v2.12h-.46v-3.59h.7l1.03,3.03,1.02-3.03h.69v3.59h-.46v-2.12c0-.07,0-.19,0-.36,0-.17,0-.35,0-.54l-1.02,3.02ZM74.13,210.37v-.51h3.49v.51h-1.45v3.79h-.59v-3.79h-1.45ZM57.23,293.47h-.48l-1.03-3.02v.11c0,.09,0,.22,0,.4,0,.18,0,.31,0,.4v2.12h-.46v-3.59h.7l1.03,3.03,1.02-3.03h.69v3.59h-.46v-2.12c0-.07,0-.19,0-.36,0-.17,0-.35,0-.54l-1.02,3.02ZM51.17,293.04v.43h-2.29v-3.59h.49v3.16h1.8ZM50.64,253.35v3.16h-.49v-3.16h-1.21v-.43h2.91v.43h-1.21ZM60.48,26.19s-.09-.08-.14-.12h1.19v3.6c0,.09.02.16.06.2.04.04.09.08.14.12h-1.39s.09-.08.14-.12c.04-.04.06-.11.06-.2v-3.28c0-.09-.02-.16-.06-.2ZM60.44,24.99c0-.08.02-.15.05-.22s.07-.13.13-.18c.05-.05.12-.1.19-.13.08-.03.15-.05.23-.05s.16.02.23.05c.07.03.14.07.19.13.05.05.1.11.13.18.03.07.05.14.05.22s-.02.15-.05.22c-.03.07-.07.13-.13.18-.05.05-.12.1-.19.13-.08.03-.15.05-.23.05s-.16-.02-.23-.05c-.07-.03-.14-.07-.19-.13-.05-.05-.1-.11-.13-.18-.03-.07-.05-.14-.05-.22ZM63.69,28.58c-.08-.07-.18-.14-.3-.2-.12-.06-.25-.13-.39-.2-.14-.07-.27-.15-.39-.24-.12-.1-.22-.21-.3-.35-.08-.14-.12-.31-.12-.51,0-.17.03-.33.1-.46.06-.14.15-.26.26-.36.11-.1.25-.17.4-.23.16-.05.33-.08.51-.08.09,0,.18,0,.26.02.08.01.16.03.23.04s.13.03.18.04c.05.01.1.02.13.02.04,0,.07,0,.1-.02.03-.02.05-.04.08-.06v1.2c-.08-.13-.18-.23-.32-.32-.14-.08-.3-.12-.48-.12-.11,0-.21.02-.31.07-.1.05-.15.13-.15.26,0,.09.04.16.12.22.08.06.18.12.3.18s.25.12.39.19.27.15.39.26c.12.1.22.23.3.37.08.15.12.32.12.53s-.04.4-.12.56-.19.3-.32.41-.29.19-.48.25c-.18.06-.37.08-.57.08-.11,0-.21,0-.3-.02-.09-.01-.18-.03-.27-.04-.08-.02-.15-.03-.22-.04s-.12-.02-.16-.02c-.06,0-.11,0-.14.02-.04.02-.08.04-.11.06v-1.33c.14.17.3.3.48.41.18.11.39.16.62.16.21,0,.37-.04.46-.13.1-.09.14-.2.14-.34,0-.11-.04-.2-.12-.27ZM66.2,26.47c.03.06.06.12.08.18l.77,1.66h.02l.77-1.66c.03-.06.05-.12.08-.18s.04-.11.04-.15c0-.06-.01-.11-.04-.14-.02-.03-.06-.07-.1-.11h1.52v.02c-.09.04-.18.11-.26.22-.08.1-.16.22-.22.35l-2.25,4.43s-.03.06-.04.1c-.02.04-.04.08-.06.12s-.04.08-.05.12c-.01.04-.02.07-.02.09,0,.06.01.1.04.14.02.03.06.07.1.11h-1.47v-.02c.12-.06.21-.13.29-.23s.14-.19.18-.28l.96-1.96-1.32-2.62c-.06-.12-.12-.23-.18-.32-.06-.09-.14-.18-.23-.26h1.48s-.08.07-.1.11-.04.08-.04.14c0,.04.01.09.04.15ZM70.69,112.93h-.71s-.04-.08-.05-.14-.02-.17-.03-.34l-.04-.72c-.01-.28-.11-.47-.3-.57-.11-.05-.28-.08-.51-.08h-1.29v1.85h-.58v-4.3h1.96c.32,0,.59.05.8.14.4.18.6.52.6,1.02,0,.26-.05.47-.16.63s-.26.3-.45.4c.17.07.29.16.38.27s.13.29.14.54l.02.58c0,.16.02.29.04.37.04.14.1.22.19.26v.1ZM71.66,122.18v4.6h-2.65v-4.6h2.65ZM66.2,110.46v.51h-2.11v1.96h-.58v-4.3h2.99v.53h-2.4v1.31h2.11ZM63.59,91.81l-1.97,3.41-.22-.12,1.97-3.41.22.12ZM61.63,125.01l1.97,3.41-.22.12-1.97-3.41.22-.12ZM66.31,101.94v-.51h3.49v.51h-1.45v3.79h-.59v-3.79h-1.45ZM69.01,68.63v-4.6h2.65v4.6h-2.65ZM65.04,104.83c.1-.18.14-.43.14-.74v-2.66h.59v2.42c0,.53-.07.94-.21,1.22-.26.52-.76.78-1.49.78s-1.22-.26-1.48-.78c-.14-.29-.21-.69-.21-1.22v-2.42h.59v2.66c0,.31.06.57.18.78.18.31.47.47.89.47.5,0,.84-.17,1.02-.51ZM63.59,70.27l-.22.12-1.97-3.41.22-.12,1.97,3.41ZM61.04,101.74c.3.29.46.61.5.98h-.57c-.06-.28-.19-.5-.38-.66s-.45-.24-.8-.24c-.42,0-.75.15-1.01.45-.26.3-.38.75-.38,1.37,0,.5.12.91.35,1.23.23.31.58.47,1.03.47.42,0,.74-.17.96-.5.12-.17.2-.4.26-.69h.57c-.05.45-.22.83-.5,1.14-.34.37-.79.55-1.37.55-.49,0-.91-.15-1.25-.45-.44-.4-.66-1.02-.66-1.86,0-.64.17-1.16.5-1.56.36-.44.85-.66,1.49-.66.54,0,.96.14,1.25.43ZM58.39,254.45v.43h-1.76v1.63h-.49v-3.59h2.49v.44h-2v1.09h1.76ZM55.78,147.66l-.12-.22,3.41-1.97.12.22-3.41,1.97ZM59.41,75.13l-3.41-1.97.12-.22,3.41,1.97-.12.22ZM59.18,87.53l-3.41,1.97-.12-.22,3.41-1.97.12.22ZM58.46,139.43v.25h-3.94v-.25h3.94ZM56,131.31l.12-.22,3.41,1.97-.12.22-3.41-1.97ZM59.77,29.87s.09.08.14.12h-1.07v-.38h-.02c-.11.2-.26.33-.46.4s-.42.11-.65.11c-.27,0-.53-.05-.78-.16-.25-.1-.48-.25-.68-.44-.2-.19-.36-.41-.48-.66s-.18-.53-.18-.84.06-.58.18-.84.28-.47.48-.66c.2-.19.42-.33.68-.44.25-.1.51-.16.78-.16.24,0,.45.03.63.08.18.05.34.12.48.2s.26.16.37.25.21.17.3.24c.07.06.16.1.25.12.09.02.15.03.18.03-.05.03-.09.08-.14.14s-.06.13-.06.2v2.48c0,.09.02.16.06.2ZM58.45,81.28v.25h-3.94v-.25h3.94ZM54.66,28.26c-.15.36-.36.66-.63.92s-.6.46-.98.6c-.38.14-.81.22-1.28.22h-1.55c.06-.04.11-.08.14-.13.04-.05.06-.11.06-.19v-5.5s.06.06.1.09c.04.03.08.04.14.04s.12,0,.21-.02c.08-.01.18-.03.28-.04.11-.02.21-.03.32-.04.11-.01.21-.02.31-.02.43,0,.84.08,1.22.22.38.15.71.35.99.62.28.26.5.57.67.92.16.35.24.74.24,1.15s-.08.82-.22,1.18ZM51.7,289.88h.49v2.22c0,.26.05.48.15.65.15.26.39.39.74.39.42,0,.7-.14.85-.42.08-.15.12-.36.12-.62v-2.22h.49v2.01c0,.44-.06.78-.18,1.02-.22.43-.63.65-1.24.65s-1.02-.22-1.24-.65c-.12-.24-.18-.58-.18-1.02v-2.01ZM53.74,256.61c-.55,0-.99-.18-1.3-.55-.28-.35-.42-.8-.42-1.33,0-.49.12-.9.36-1.25.31-.44.77-.66,1.37-.66s1.1.2,1.41.61c.24.32.36.72.36,1.22,0,.54-.14.98-.41,1.34-.32.42-.77.62-1.36.62ZM58.12,160.04h.64l1.24,3.67,1.22-3.67h.65l-1.57,4.3h-.62l-1.57-4.3ZM59.19,252.92h2.49v.44h-2v1.09h1.76v.43h-1.76v1.63h-.49v-3.59ZM59.49,289.88h2.6v.44h-2.13v1.09h1.97v.42h-1.97v1.22h2.17v.43h-2.64v-3.59ZM61.62,153.37l-.22-.12,1.97-3.41.22.12-1.97,3.41ZM62.63,160.71c.37-.53.92-.8,1.65-.8s1.32.24,1.69.73c.29.38.43.87.43,1.46,0,.64-.16,1.18-.49,1.6-.38.5-.93.75-1.64.75-.66,0-1.18-.22-1.56-.66-.34-.42-.51-.96-.51-1.6,0-.58.14-1.08.43-1.49ZM65.49,209.85h.69l2.15,3.48v-3.48h.56v4.3h-.65l-2.18-3.47v3.47h-.56v-4.3ZM67.09,164.34v-4.3h.58v3.79h2.16v.51h-2.74ZM70.04,210.53c.37-.53.92-.8,1.65-.8s1.32.24,1.69.73c.29.38.43.87.43,1.46,0,.64-.16,1.18-.49,1.6-.38.5-.93.75-1.64.75-.66,0-1.18-.22-1.56-.66-.34-.42-.51-.96-.51-1.6,0-.58.14-1.08.43-1.49ZM73.65,163.67c-.26.52-.76.78-1.49.78s-1.22-.26-1.48-.78c-.14-.29-.21-.69-.21-1.22v-2.42h.59v2.66c0,.31.06.57.18.78.18.31.47.47.89.47.5,0,.84-.17,1.02-.51.1-.18.14-.43.14-.74v-2.66h.59v2.42c0,.53-.07.94-.21,1.22ZM71.5,112.93v-4.3h3.12v.53h-2.55v1.31h2.36v.5h-2.36v1.46h2.6v.51h-3.17ZM81.63,26.94c-.03-.06-.06-.12-.1-.16.17-.01.31-.06.43-.15.12-.09.25-.18.39-.28.14-.1.29-.19.46-.28.17-.08.38-.12.64-.12.29,0,.54.05.77.16s.42.25.58.43.28.39.36.62c.08.23.12.48.12.74v1.78c0,.09.02.16.06.2.04.04.09.08.14.12h-1.39s.09-.08.14-.12c.04-.04.06-.11.06-.2v-2c0-.24-.07-.43-.22-.58s-.36-.22-.62-.22c-.14,0-.28.03-.4.1s-.25.15-.38.26v2.44c0,.09.02.16.06.2.04.04.09.08.14.12h-1.39s.09-.08.14-.12c.04-.04.06-.11.06-.2v-2.46c0-.12-.01-.22-.04-.28ZM87.95,26.07v1.01c-.03-.06-.08-.1-.13-.12-.05-.02-.11-.03-.18-.03h-.42v2.74c0,.09.02.16.06.2.04.04.09.08.14.12h-1.39s.09-.08.14-.12c.04-.04.06-.11.06-.2v-2.74h-.62l1.61-2.18v1.31h.72ZM81.14,133.07l3.41-1.97.12.22-3.41,1.97-.12-.22ZM81.61,87.32l3.41,1.97-.12.22-3.41-1.97.12-.22ZM81.61,145.47l3.41,1.97-.12.22-3.41-1.97.12-.22ZM82.21,139.68v-.25h3.94v.25h-3.94ZM86.15,81.28v.25h-3.94v-.25h3.94ZM84.55,72.94l.12.22-3.41,1.97-.12-.22,3.41-1.97ZM83.27,101.43v.53h-2.4v1.31h2.11v.51h-2.11v1.96h-.58v-4.3h2.99ZM80.81,28.85c-.12.25-.28.48-.48.66-.2.19-.43.34-.7.44-.26.11-.54.16-.83.16s-.56-.05-.83-.16c-.26-.11-.5-.25-.7-.44-.2-.19-.36-.41-.48-.66-.12-.25-.18-.53-.18-.82s.06-.57.18-.82c.12-.25.28-.47.48-.66s.43-.34.7-.44c.26-.11.54-.16.83-.16s.56.05.83.16c.26.11.5.25.7.44s.36.41.48.66c.12.25.18.53.18.82s-.06.57-.18.82ZM79.04,95.22l-1.97-3.41.22-.12,1.97,3.41-.22.12ZM77.29,70.39l-.22-.12,1.97-3.41.22.12-1.97,3.41ZM79.6,101.43v.53h-2.4v1.31h2.11v.51h-2.11v1.96h-.58v-4.3h2.99ZM77.3,108.51c.76,0,1.32.24,1.69.73.29.38.43.87.43,1.46,0,.28-.03.54-.1.8-.1.39-.28.71-.52.96l.59.46-.29.35-.67-.51c-.16.09-.33.16-.52.21s-.39.08-.61.08c-.67,0-1.19-.22-1.57-.66-.33-.43-.5-.96-.5-1.6,0-.58.14-1.08.43-1.49.37-.53.92-.8,1.65-.8ZM77.29,128.55l-.22-.12,1.97-3.41.22.12-1.97,3.41ZM79.26,153.25l-.22.12-1.97-3.41.22-.12,1.97,3.41ZM76,25.69c-.12-.14-.28-.26-.46-.36-.19-.09-.43-.14-.73-.14-.27,0-.52.05-.76.14-.24.1-.45.23-.63.4-.18.17-.33.38-.44.62-.11.24-.16.5-.16.79s.05.55.16.79.25.44.44.62c.18.17.39.31.63.4s.49.14.76.14c.3,0,.54-.05.73-.14.19-.09.34-.21.46-.36v1.52s-.08-.08-.13-.1c-.03-.01-.05-.02-.07-.02-.02,0-.04,0-.07,0-.06,0-.17.02-.33.06-.16.04-.36.06-.59.06-.43,0-.83-.07-1.2-.22-.37-.15-.69-.35-.96-.62-.27-.26-.49-.58-.64-.94s-.24-.76-.24-1.2.08-.83.24-1.2.37-.68.64-.94c.27-.26.59-.47.96-.62.37-.15.77-.22,1.2-.22.12,0,.22,0,.32.02.09.01.18.03.25.04.08.02.14.03.2.04.06.01.11.02.15.02.06,0,.12-.01.16-.04.04-.03.08-.06.12-.08v1.52ZM72.1,102.11c.37-.53.92-.8,1.65-.8s1.32.24,1.69.73c.29.38.43.87.43,1.46,0,.64-.16,1.18-.49,1.6-.38.5-.93.75-1.64.75-.66,0-1.18-.22-1.56-.66-.34-.42-.51-.96-.51-1.6,0-.58.14-1.08.43-1.49ZM77.1,164.34h-.58l-1.24-3.63v.13c0,.11,0,.27,0,.48s0,.37,0,.48v2.54h-.56v-4.3h.83l1.24,3.64,1.23-3.64h.83v4.3h-.56v-2.54c0-.09,0-.23,0-.44s0-.42,0-.65l-1.23,3.63ZM78.21,209.85h3.12v.53h-2.55v1.31h2.36v.5h-2.36v1.46h2.6v.51h-3.17v-4.3ZM78.95,289.88h2.6v.44h-2.13v1.09h1.97v.42h-1.97v1.22h2.17v.43h-2.64v-3.59ZM79.81,164.34v-4.3h3.12v.53h-2.55v1.31h2.36v.5h-2.36v1.46h2.6v.51h-3.17ZM82.24,289.88h.57l1.79,2.9v-2.9h.46v3.59h-.55l-1.81-2.89v2.89h-.46v-3.59ZM84.8,256.51v-3.59h1.63c.27,0,.49.04.66.12.33.15.5.44.5.85,0,.21-.04.39-.13.53-.09.14-.21.25-.37.33.14.06.25.13.32.22.07.09.11.24.12.45l.02.48c0,.14.02.24.03.3.03.11.08.19.16.22v.08h-.6s-.03-.07-.04-.12-.02-.14-.02-.28l-.03-.6c-.01-.23-.1-.39-.25-.47-.09-.04-.23-.07-.42-.07h-1.07v1.54h-.49ZM86.14,289.88l1.03,3.05,1.02-3.05h.54l-1.31,3.59h-.51l-1.31-3.59h.54ZM88.29,26.19s-.09-.08-.14-.12h1.13v.62h.02c.03-.19.11-.34.24-.45s.3-.18.5-.19c.08,0,.16-.02.25-.06.09-.03.17-.09.24-.17v1.27c-.11-.08-.25-.12-.44-.12-.12,0-.25.03-.39.1s-.26.21-.36.43v2.15c0,.09.02.16.06.2.04.04.09.08.14.12h-1.39s.09-.08.14-.12c.04-.04.06-.11.06-.2v-3.28c0-.09-.02-.16-.06-.2ZM88.4,256.51v-3.59h2.6v.44h-2.13v1.09h1.97v.42h-1.97v1.22h2.17v.43h-2.64ZM90.85,28.03c0-.29.06-.57.18-.82.12-.25.28-.47.48-.66s.43-.34.7-.44c.26-.11.54-.16.83-.16s.56.05.83.16c.26.11.5.25.7.44.2.19.36.41.48.66.12.25.18.53.18.82s-.06.57-.18.82c-.12.25-.28.48-.48.66-.2.19-.43.34-.7.44-.26.11-.54.16-.83.16s-.56-.05-.83-.16c-.26-.11-.5-.25-.7-.44-.2-.19-.36-.41-.48-.66-.12-.25-.18-.53-.18-.82ZM91.91,256.27c-.25-.23-.37-.53-.36-.92h.46c.01.2.06.37.14.5.16.24.43.36.82.36.18,0,.34-.03.48-.08.28-.1.42-.28.42-.54,0-.2-.06-.33-.18-.42-.12-.08-.31-.15-.56-.21l-.47-.11c-.31-.07-.52-.15-.65-.24-.22-.15-.33-.37-.33-.67,0-.32.11-.59.33-.79.22-.21.52-.31.92-.31.37,0,.68.09.93.27.26.18.38.47.38.87h-.46c-.02-.19-.07-.34-.15-.44-.14-.19-.38-.28-.72-.28-.27,0-.47.06-.59.18-.12.12-.18.26-.18.42,0,.18.07.3.21.39.09.05.3.12.63.2l.49.11c.24.06.42.13.54.23.22.17.33.41.33.73,0,.4-.14.68-.42.85-.28.17-.61.26-.98.26-.44,0-.78-.11-1.02-.34ZM93.53,290.45c.31-.44.77-.66,1.37-.66s1.1.2,1.41.61c.24.32.36.72.36,1.22,0,.54-.14.98-.41,1.34-.32.42-.77.62-1.37.62-.55,0-.99-.18-1.3-.55-.28-.35-.42-.8-.42-1.33,0-.49.12-.9.36-1.25ZM95.67,29.99s.09-.08.14-.12c.04-.04.06-.11.06-.2v-5.06c0-.09-.02-.16-.06-.2-.04-.04-.09-.08-.14-.12h1.19v5.38c0,.09.02.16.06.2.04.04.09.08.14.12h-1.39ZM38.53,22.23v-.5h69.16v.5H38.53ZM33.67,163.63v3.44h-.4v-3.84h3.39v3.64h2.59v-3.64h3.39v3.64h2.11v.4h-2.51v-3.64h-2.59v3.64h-3.39v-3.64h-2.59ZM32.44,58.44l3.41,1.97-.12.22-3.41-1.97.12-.22ZM35.38,103.66l.12.22-3.41,1.97-.12-.22,3.41-1.97ZM32.44,118.03l3.41,1.97-.12.22-3.41-1.97.12-.22ZM43.45,256.6c-.41,0-.76-.13-1.04-.38-.37-.33-.55-.85-.55-1.55,0-.53.14-.96.42-1.3.3-.37.71-.55,1.24-.55.45,0,.8.12,1.04.36s.39.51.41.82h-.47c-.05-.23-.16-.41-.32-.55-.16-.14-.38-.2-.66-.2-.35,0-.63.12-.84.37-.21.25-.32.63-.32,1.14,0,.42.1.76.29,1.02.19.26.48.39.86.39.35,0,.62-.14.8-.41.1-.15.17-.34.22-.57h.47c-.04.38-.18.69-.42.95-.28.31-.66.46-1.14.46ZM44.54,289.88l-1.31,3.59h-.51l-1.31-3.59h.54l1.03,3.05,1.02-3.05h.54ZM45.17,290.45c.31-.44.77-.66,1.37-.66s1.1.2,1.41.61c.24.32.36.72.36,1.22,0,.54-.14.98-.41,1.34-.32.42-.77.62-1.36.62-.55,0-.99-.18-1.3-.55-.28-.35-.42-.8-.42-1.33,0-.49.12-.9.36-1.25ZM47.08,256.6c-.61,0-1.02-.22-1.24-.65-.12-.24-.18-.58-.18-1.02v-2.01h.49v2.22c0,.26.05.48.15.65.15.26.39.39.74.39.42,0,.7-.14.85-.42.08-.15.12-.36.12-.62v-2.22h.49v2.01c0,.44-.06.78-.18,1.02-.22.43-.63.65-1.24.65ZM97.58,24.42s-.09-.08-.14-.12h1.19v5.38c0,.09.02.16.06.2.04.04.09.08.14.12h-1.39s.09-.08.14-.12c.04-.04.06-.11.06-.2v-5.06c0-.09-.02-.16-.06-.2ZM97.26,289.88h1.43c.49,0,.86.17,1.13.52.24.32.36.72.36,1.21,0,.38-.07.72-.21,1.03-.25.54-.68.82-1.28.82h-1.43v-3.59ZM100.15,29.68c-.21-.17-.39-.38-.53-.62-.14-.24-.23-.5-.27-.77-.04-.27-.03-.53.03-.78.06-.25.17-.49.33-.71.16-.22.38-.41.64-.57.22-.13.45-.2.68-.23.23-.02.45,0,.67.05.22.06.42.15.61.27.19.12.36.27.5.43.09.1.18.2.28.31.1.11.17.18.22.21l-2.68,1.55c.39.49.88.56,1.47.22.2-.11.36-.26.47-.43.12-.17.23-.36.37-.13.13.23.44.71.4.72-.04,0-.09.02-.14.05-.08.05-.18.13-.3.25-.12.12-.28.23-.46.34-.27.15-.54.25-.81.27-.27.03-.53,0-.78-.07-.25-.07-.48-.2-.69-.37ZM102.55,73.66h1.96c.32,0,.59.05.8.14.4.18.6.52.6,1.02,0,.26-.05.47-.16.63s-.25.3-.45.4c.17.07.29.16.38.27s.13.29.14.54l.02.58c0,.16.02.29.04.37.04.14.1.22.19.26v.1h-.71s-.04-.08-.05-.14-.02-.17-.03-.34l-.04-.72c-.01-.28-.12-.47-.3-.57-.11-.05-.28-.08-.51-.08h-1.29v1.85h-.58v-4.3ZM105.89,30.12c-.3,0-.58-.05-.84-.16-.26-.1-.49-.25-.68-.43-.19-.18-.34-.4-.46-.66-.11-.26-.17-.54-.17-.84s.06-.58.17-.84c.11-.26.26-.48.46-.66.19-.18.42-.33.68-.43.26-.1.54-.16.84-.16.24,0,.44.03.59.09.16.06.31.13.46.2v-1.94h1.19s-.09.08-.14.12c-.04.04-.06.11-.06.2v4.23c0,.12.01.22.04.28.03.06.06.12.1.16-.17,0-.31.04-.44.13-.13.09-.27.18-.42.29s-.33.2-.54.28-.47.13-.8.13ZM112.18,134.76v.5h-2.36v1.46h2.6v.51h-3.17v-4.3h3.12v.53h-2.55v1.31h2.36ZM110.82,118.25l-3.41,1.97-.12-.22,3.41-1.97.12.22ZM108.02,163.25l3.41,1.97-.12.22-3.41-1.97.12-.22ZM111.04,105.84l-3.41-1.97.12-.22,3.41,1.97-.12.22ZM110.04,77.96h-3.17v-4.3h3.12v.53h-2.55v1.31h2.36v.5h-2.36v1.46h2.6v.51ZM107.67,60.63l-.12-.22,3.41-1.97.12.22-3.41,1.97ZM110.35,52.65h-3.94v-.25h3.94v.25ZM106.15,111.99h3.94v.25h-3.94v-.25ZM106.41,171.58h3.94v.25h-3.94v-.25ZM110.96,177.62l.12.22-3.41,1.97-.12-.22,3.41-1.97ZM111.66,192.22h.66l1.56,4.3h-.64l-.44-1.29h-1.7l-.47,1.29h-.6l1.62-4.3ZM113.75,133.75v3.47h-.56v-4.3h.69l2.15,3.48v-3.48h.56v4.3h-.66l-2.18-3.47ZM115.49,160.57l-.22.12-1.97-3.41.22-.12,1.97,3.41ZM115.01,122.4l.22.12-1.97,3.41-.22-.12,1.97-3.41ZM113.04,97.7l.22-.12,1.97,3.41-.22.12-1.97-3.41ZM113.52,185.52l-.22-.12,1.97-3.41.22.12-1.97,3.41ZM114.71,192.77c.36-.44.85-.66,1.49-.66.54,0,.96.14,1.25.43.3.29.46.61.5.98h-.57c-.06-.28-.19-.5-.38-.66-.19-.16-.45-.24-.79-.24-.42,0-.75.15-1.01.45-.26.3-.38.75-.38,1.37,0,.5.12.91.35,1.23s.58.47,1.03.47c.42,0,.74-.17.96-.5.12-.17.2-.4.26-.69h.57c-.05.45-.22.83-.5,1.14-.34.37-.79.55-1.37.55-.49,0-.91-.15-1.25-.46-.44-.4-.66-1.02-.66-1.86,0-.63.17-1.16.5-1.56ZM126.06,194.05v.5h-2.36v1.46h2.6v.51h-3.17v-4.3h3.12v.53h-2.55v1.31h2.36ZM128.71,254.46v.42h-1.97v1.22h2.17v.43h-2.64v-3.59h2.6v.44h-2.13v1.09h1.97ZM123.24,255.79c.19.26.48.39.86.39.35,0,.62-.14.8-.41.1-.14.17-.33.22-.57h.47c-.04.38-.18.69-.42.95-.28.31-.66.46-1.14.46-.41,0-.76-.13-1.04-.38-.37-.33-.55-.85-.55-1.55,0-.53.14-.96.42-1.3.3-.37.71-.55,1.24-.55.45,0,.8.12,1.04.36.25.24.39.51.41.82h-.47c-.05-.23-.16-.41-.32-.55-.16-.13-.38-.2-.66-.2-.35,0-.63.12-.84.37-.21.25-.32.63-.32,1.14,0,.42.1.76.29,1.02ZM123.56,158.93h-2.65v-4.6h2.65v4.6ZM121.79,192.53c.3.29.46.61.5.98h-.57c-.06-.28-.19-.5-.38-.66-.19-.16-.45-.24-.79-.24-.42,0-.75.15-1.01.45-.26.3-.38.75-.38,1.37,0,.5.12.91.35,1.23s.58.47,1.03.47c.42,0,.74-.17.96-.5.12-.17.2-.4.26-.69h.57c-.05.45-.22.83-.5,1.14-.34.37-.79.55-1.37.55-.49,0-.91-.15-1.25-.46-.44-.4-.66-1.02-.66-1.86,0-.63.17-1.16.5-1.56.36-.44.85-.66,1.49-.66.54,0,.96.14,1.25.43ZM119.63,255.79c.19.26.48.39.86.39.35,0,.62-.14.8-.41.1-.14.17-.33.22-.57h.47c-.04.38-.18.69-.42.95-.28.31-.66.46-1.14.46-.41,0-.76-.13-1.04-.38-.37-.33-.55-.85-.55-1.55,0-.53.14-.96.42-1.3.3-.37.71-.55,1.24-.55.45,0,.8.12,1.04.36.25.24.38.51.41.82h-.47c-.05-.23-.16-.41-.32-.55-.16-.13-.38-.2-.66-.2-.35,0-.63.12-.84.37-.21.25-.32.63-.32,1.14,0,.42.1.76.29,1.02ZM118.56,256.51h-.53l-.36-1.07h-1.42l-.39,1.07h-.5l1.35-3.59h.55l1.3,3.59ZM114.82,288.82h21.5v6.65h-21.5v-6.65ZM131.16,157.29l-1.97,3.41-.22-.12,1.97-3.41.22.12ZM133.51,58.44l3.41,1.97-.12.22-3.41-1.97.12-.22ZM136.31,103.87l-3.41,1.97-.12-.22,3.41-1.97.12.22ZM137.78,112.24h-3.94v-.25h3.94v.25ZM133.03,165.21l3.41-1.97.12.22-3.41,1.97-.12-.22ZM132.89,137.23v-4.3h1.72c.58,0,1.04.21,1.36.63.29.38.43.86.43,1.46,0,.46-.08.87-.25,1.24-.3.65-.81.98-1.54.98h-1.71ZM136.53,120.22l-3.41-1.97.12-.22,3.41,1.97-.12.22ZM134.54,192.22v.51h-1.45v3.79h-.59v-3.79h-1.45v-.51h3.49ZM132.87,253.36v-.43h2.91v.43h-1.21v3.16h-.49v-3.16h-1.21ZM129.19,181.99l1.97,3.41-.22.12-1.97-3.41.22-.12ZM131.92,255.83v-2.9h.46v3.59h-.55l-1.82-2.89v2.89h-.46v-3.59h.57l1.79,2.9ZM134.11,171.83v-.25h3.94v.25h-3.94ZM138.04,52.65h-3.94v-.25h3.94v.25ZM136.44,44.07l.12.22-3.41,1.97-.12-.22,3.41-1.97ZM132.46,74.2c.36-.44.85-.66,1.49-.66.54,0,.96.14,1.25.43.3.29.46.61.5.98h-.57c-.06-.28-.19-.5-.38-.66-.19-.16-.45-.24-.79-.24-.42,0-.75.15-1.01.45-.26.3-.38.75-.38,1.37,0,.5.12.91.35,1.23.23.31.58.47,1.03.47.42,0,.74-.17.96-.5.12-.17.2-.4.26-.69h.57c-.05.45-.22.83-.5,1.14-.34.37-.79.55-1.37.55-.49,0-.91-.15-1.25-.45-.44-.4-.66-1.02-.66-1.86,0-.64.17-1.16.5-1.56ZM131.74,133.54c.29.38.43.87.43,1.46,0,.64-.16,1.18-.49,1.6-.38.5-.93.75-1.64.75-.66,0-1.18-.22-1.56-.66-.34-.42-.51-.96-.51-1.6,0-.58.14-1.08.43-1.49.37-.53.92-.8,1.65-.8s1.32.24,1.69.73ZM130.9,97.7l-1.97,3.41-.22-.12,1.97-3.41.22.12ZM128.93,122.4l1.97,3.41-.22.12-1.97-3.41.22-.12ZM130.94,37.98l.22.12-1.97,3.41-.22-.12,1.97-3.41ZM129.19,62.81l1.97,3.41-.22.12-1.97-3.41.22-.12ZM127.82,73.66h.69l2.15,3.48v-3.48h.56v4.3h-.66l-2.18-3.47v3.47h-.56v-4.3ZM129.91,195.7v-3.48h.56v4.3h-.66l-2.18-3.47v3.47h-.56v-4.3h.69l2.15,3.48ZM127.32,137.23h-.56v-2.54c0-.09,0-.23,0-.44s0-.42,0-.65l-1.23,3.63h-.58l-1.24-3.63v.13c0,.11,0,.27,0,.48s0,.37,0,.48v2.54h-.56v-4.3h.83l1.24,3.64,1.23-3.64h.83v4.3ZM120.64,99.34v-4.6h2.65v4.6h-2.65ZM125.73,73.66l1.56,4.3h-.64l-.44-1.29h-1.7l-.47,1.29h-.6l1.62-4.3h.66ZM120.9,35.15h2.65v4.6h-2.65v-4.6ZM119.49,73.66h.69l2.15,3.48v-3.48h.56v4.3h-.66l-2.18-3.47v3.47h-.56v-4.3ZM120.33,132.92h.65l-1.57,4.3h-.62l-1.57-4.3h.64l1.24,3.67,1.22-3.67ZM118.36,74.27c.29.38.43.87.43,1.46,0,.64-.16,1.18-.49,1.6-.38.5-.93.75-1.64.75-.66,0-1.18-.22-1.56-.66-.34-.42-.51-.96-.51-1.6,0-.58.14-1.08.43-1.49.37-.53.92-.8,1.65-.8s1.32.24,1.69.73ZM113.52,37.98l1.97,3.41-.22.12-1.97-3.41.22-.12ZM115.27,62.81l.22.12-1.97,3.41-.22-.12,1.97-3.41ZM113.41,73.87c.31.22.46.57.46,1.04h-.55c-.03-.23-.09-.41-.18-.53-.17-.22-.46-.34-.87-.34-.33,0-.57.07-.71.22-.14.14-.22.31-.22.5,0,.21.08.37.25.46.11.06.36.14.76.23l.58.14c.28.07.5.16.65.27.26.2.4.49.4.88,0,.48-.17.82-.51,1.02-.34.21-.73.31-1.18.31-.52,0-.93-.14-1.23-.41-.29-.27-.44-.64-.43-1.1h.55c.01.24.07.44.17.59.19.29.51.43.99.43.21,0,.4-.03.58-.09.33-.12.5-.34.5-.65,0-.23-.07-.4-.21-.5-.14-.1-.37-.18-.68-.25l-.56-.13c-.37-.09-.63-.18-.78-.28-.27-.18-.4-.45-.4-.81,0-.39.13-.7.39-.95.26-.25.63-.37,1.11-.37.44,0,.81.11,1.12.33ZM111.3,46.25l-3.41-1.97.12-.22,3.41,1.97-.12.22ZM102.22,15.59c.18-.38.41-.71.71-1,.3-.28.65-.51,1.04-.67.4-.16.81-.24,1.24-.24s.85.08,1.24.24c.4.16.74.38,1.04.67.3.28.54.62.71,1s.26.79.26,1.23-.09.85-.26,1.23-.41.71-.71,1c-.3.28-.65.51-1.04.67-.4.16-.81.24-1.24.24s-.85-.08-1.24-.24c-.4-.16-.74-.38-1.04-.67-.3-.28-.54-.62-.71-1s-.26-.79-.26-1.23.09-.85.26-1.23ZM99.4,11.91c.05-.1.11-.2.19-.28.08-.08.18-.14.29-.19.11-.05.23-.07.35-.07s.24.02.35.07c.11.05.21.11.29.19s.14.17.19.28c.05.1.07.22.07.34s-.02.23-.07.34-.11.2-.19.28-.18.14-.29.19c-.11.05-.23.07-.35.07s-.24-.02-.35-.07c-.11-.05-.21-.11-.29-.19-.08-.08-.14-.17-.19-.28s-.07-.22-.07-.34.02-.23.07-.34ZM99.39,14.06c-.06-.06-.13-.12-.2-.18h1.79v5.4c0,.14.03.24.1.3.06.06.13.12.2.18h-2.09c.07-.06.14-.12.2-.18.06-.06.1-.16.1-.3v-4.92c0-.14-.03-.24-.1-.3ZM94.49,17.9c.21.25.45.45.71.61.27.16.58.24.93.24.32,0,.55-.07.7-.2.14-.13.22-.3.22-.51,0-.16-.06-.29-.18-.4-.12-.11-.27-.21-.45-.31-.18-.1-.37-.19-.58-.29-.21-.1-.4-.22-.58-.37-.18-.14-.33-.32-.45-.53s-.18-.46-.18-.77c0-.26.05-.49.14-.7.1-.21.23-.39.4-.53s.37-.26.6-.34c.23-.08.49-.12.77-.12.14,0,.27,0,.39.03s.24.04.34.07c.1.02.2.05.28.07.08.02.14.03.19.03.06,0,.1-.01.14-.04.04-.02.08-.06.12-.1v1.8c-.11-.19-.27-.35-.47-.47s-.45-.19-.73-.19c-.16,0-.31.04-.46.11-.15.07-.22.2-.22.38,0,.13.06.24.18.32.12.09.27.18.45.26.18.09.37.18.58.29s.4.23.58.38c.18.15.33.34.45.56.12.22.18.49.18.8s-.06.6-.18.85-.28.45-.49.61c-.2.16-.44.29-.71.37-.27.08-.56.13-.85.13-.16,0-.31-.01-.45-.03-.14-.02-.27-.04-.4-.07-.12-.02-.23-.05-.33-.07-.1-.02-.18-.03-.25-.03-.09,0-.16.01-.22.04-.06.02-.11.06-.17.1v-1.99ZM90.79,14.06c-.06-.06-.13-.12-.2-.18h1.69v.94h.02c.04-.28.16-.51.37-.68.2-.17.45-.27.75-.28.11,0,.24-.04.38-.08.14-.05.26-.13.37-.25v1.91c-.16-.12-.38-.18-.66-.18-.18,0-.38.05-.58.16s-.39.32-.55.65v3.23c0,.14.03.24.1.3.06.06.13.12.2.18h-2.09c.07-.06.14-.12.2-.18.06-.06.1-.16.1-.3v-4.92c0-.14-.03-.24-.1-.3ZM85.33,14.17c.33-.19.67-.31,1.01-.34.34-.04.68-.01,1,.07.33.08.63.22.92.4.29.18.54.4.75.65.13.15.27.3.42.47.15.16.26.27.33.32l-4.02,2.32c.59.73,1.8.44,2.68-.06.3-.17.64,1.14.46,1.32-.19.18-.31.22-.42.28-.41.23-.81.37-1.22.41-.41.04-.8,0-1.18-.1-.37-.11-.72-.3-1.04-.55-.32-.25-.58-.57-.8-.93s-.35-.75-.41-1.16c-.06-.4-.05-.79.04-1.17.09-.38.26-.74.5-1.07.24-.33.56-.62.97-.85ZM78.51,11.22s-.08.1-.11.17c-.04.06-.05.14-.05.23,0,.11.03.26.1.44.06.18.12.36.18.52l1.73,4.9h.02l1.74-4.9c.06-.16.12-.33.18-.52.06-.18.1-.33.1-.44,0-.09-.02-.16-.05-.23-.04-.06-.07-.12-.11-.17h2.18c-.19.19-.34.43-.44.71l-2.44,6.48c-.06.16-.13.33-.19.52s-.09.33-.09.44c0,.09.02.16.05.23s.07.12.11.17h-1.73l-2.96-7.84c-.1-.28-.25-.52-.44-.71h2.23ZM68.61,17.9c.21.25.45.45.71.61.27.16.58.24.93.24.32,0,.55-.07.7-.2s.22-.3.22-.51c0-.16-.06-.29-.18-.4-.12-.11-.27-.21-.45-.31-.18-.1-.37-.19-.58-.29s-.4-.22-.58-.37c-.18-.14-.33-.32-.45-.53-.12-.21-.18-.46-.18-.77,0-.26.05-.49.14-.7.1-.21.23-.39.4-.53s.37-.26.6-.34c.23-.08.49-.12.77-.12.14,0,.27,0,.39.03s.24.04.34.07c.1.02.2.05.28.07.08.02.14.03.19.03.06,0,.1-.01.14-.04s.08-.06.12-.1v1.8c-.11-.19-.27-.35-.47-.47s-.45-.19-.73-.19c-.16,0-.31.04-.46.11-.15.07-.22.2-.22.38,0,.13.06.24.18.32.12.09.27.18.45.26.18.09.37.18.58.29.21.1.4.23.58.38.18.15.33.34.45.56.12.22.18.49.18.8s-.06.6-.18.85-.28.45-.49.61c-.2.16-.44.29-.71.37-.27.08-.56.13-.85.13-.16,0-.31-.01-.45-.03-.14-.02-.27-.04-.4-.07-.12-.02-.23-.05-.33-.07s-.18-.03-.25-.03c-.09,0-.16.01-.22.04-.06.02-.11.06-.17.1v-1.99ZM64.09,13.88c-.07.06-.14.12-.2.18-.06.06-.1.16-.1.3v3c0,.36.11.65.34.87.22.22.54.33.94.33.22,0,.42-.05.61-.16.19-.1.38-.23.57-.38v-3.66c0-.14-.03-.24-.1-.3-.06-.06-.13-.12-.2-.18h2.09c-.07.06-.14.12-.2.18-.06.06-.1.16-.1.3v3.68c0,.18.02.32.06.42.04.1.09.18.16.24-.25.02-.46.09-.65.22-.18.13-.38.27-.58.43-.2.15-.43.29-.69.41-.26.12-.58.19-.96.19-.43,0-.82-.08-1.16-.25-.34-.16-.63-.38-.87-.65-.24-.27-.42-.58-.55-.93s-.19-.72-.19-1.1v-2.66c0-.14-.03-.24-.1-.3-.06-.06-.13-.12-.2-.18h2.09ZM54.99,15.56c.17-.38.4-.71.68-.99s.63-.49,1.02-.65c.39-.16.81-.23,1.26-.23.36,0,.66.04.89.13s.46.19.7.3v-2.9h1.79c-.07.06-.14.12-.2.18s-.1.16-.1.3v6.35c0,.18.02.32.06.42.04.1.09.18.16.24-.25,0-.47.07-.66.2-.19.13-.4.28-.63.43-.23.16-.5.3-.8.43-.31.13-.71.19-1.19.19-.45,0-.87-.08-1.26-.23-.39-.16-.73-.37-1.02-.65s-.52-.61-.68-.99c-.17-.38-.25-.8-.25-1.26s.08-.88.25-1.26ZM52.18,11.91c.05-.1.11-.2.19-.28s.18-.14.29-.19.23-.07.35-.07.24.02.35.07c.11.05.21.11.29.19s.14.17.19.28c.05.1.07.22.07.34s-.02.23-.07.34c-.05.1-.11.2-.19.28s-.18.14-.29.19c-.11.05-.23.07-.35.07s-.24-.02-.35-.07-.21-.11-.29-.19-.14-.17-.19-.28-.07-.22-.07-.34.02-.23.07-.34ZM52.17,14.06c-.06-.06-.13-.12-.2-.18h1.79v5.4c0,.14.03.24.1.3.06.06.13.12.2.18h-2.09c.07-.06.14-.12.2-.18s.1-.16.1-.3v-4.92c0-.14-.03-.24-.1-.3ZM46.98,15.58c.17-.38.4-.71.69-.99.29-.28.62-.5,1.01-.66.38-.16.79-.24,1.21-.24.16,0,.3,0,.41.03.11.02.22.04.32.07s.2.05.28.07c.08.02.14.03.19.03.06,0,.1-.01.14-.04s.08-.06.12-.1v2.18c-.34-.57-.82-.85-1.46-.85-.25,0-.47.04-.68.13-.2.09-.38.21-.53.36s-.26.34-.35.55c-.08.22-.13.45-.13.7s.04.49.13.7.2.39.35.55.32.27.53.36c.2.09.43.13.68.13.64,0,1.13-.28,1.46-.85v2.18s-.08-.07-.12-.1-.09-.04-.14-.04c-.1,0-.26.03-.47.1-.21.06-.45.1-.73.1-.42,0-.83-.08-1.21-.24-.38-.16-.72-.38-1.01-.66-.29-.28-.52-.61-.69-.99-.17-.38-.26-.79-.26-1.24s.09-.86.26-1.24ZM38.69,19.05l2.44-6.48c.06-.16.13-.33.19-.52.06-.18.09-.33.09-.44,0-.09-.02-.16-.05-.23-.04-.06-.07-.12-.11-.17h1.74l3.04,7.84c.1.28.25.52.44.71h-2.2s.08-.1.11-.17c.04-.06.05-.14.05-.23,0-.11-.03-.26-.09-.44s-.12-.36-.19-.52l-.18-.47h-3.28l-.18.47c-.06.16-.13.33-.19.52s-.09.33-.09.44c0,.09.02.16.05.23.04.06.07.12.11.17h-2.16c.19-.19.34-.43.44-.71ZM36.98,112.24h-3.94v-.25h3.94v.25ZM36.98,52.65h-3.94v-.25h3.94v.25ZM35.38,44.07l.12.22-3.41,1.97-.12-.22,3.41-1.97ZM31.32,73.78c.42.22.68.62.77,1.18h-.58c-.07-.31-.21-.54-.43-.69-.22-.14-.49-.22-.82-.22-.39,0-.72.15-.99.45-.27.3-.4.74-.4,1.34,0,.51.11.93.33,1.25s.58.48,1.08.48c.38,0,.7-.11.95-.34.25-.23.38-.59.38-1.09h-1.35v-.48h1.89v2.3h-.38l-.14-.55c-.19.22-.37.37-.52.45-.25.14-.57.22-.96.22-.5,0-.93-.17-1.29-.5-.39-.41-.59-.98-.59-1.71s.19-1.29.58-1.72c.37-.41.84-.61,1.42-.61.4,0,.74.08,1.03.23ZM28.13,101.11l-.22-.12,1.97-3.41.22.12-1.97,3.41ZM30.1,125.81l-.22.12-1.97-3.41.22-.12,1.97,3.41ZM29.88,37.98l.22.12-1.97,3.41-.22-.12,1.97-3.41ZM28.13,62.81l1.97,3.41-.22.12-1.97-3.41.22-.12ZM29.03,135.74l1.24-2.07h.69l-1.63,2.57v1.73h-.58v-1.73l-1.63-2.57h.68l1.24,2.07ZM24.12,73.66h.69l2.15,3.48v-3.48h.56v4.3h-.65l-2.18-3.47v3.47h-.56v-4.3ZM25.14,133.67h.66l1.56,4.3h-.64l-.44-1.29h-1.7l-.47,1.29h-.6l1.62-4.3ZM20.85,255.79c.18.27.48.4.9.4.32,0,.58-.09.79-.28.21-.19.31-.49.32-.91h-1.12v-.4h1.57v1.92h-.31l-.12-.46c-.16.18-.31.31-.43.38-.21.12-.48.18-.8.18-.42,0-.78-.14-1.08-.41-.33-.35-.49-.82-.49-1.42s.16-1.08.48-1.43c.3-.34.7-.51,1.18-.51.33,0,.62.07.86.2.35.19.57.52.65.98h-.48c-.06-.26-.18-.45-.36-.57-.18-.12-.41-.18-.68-.18-.33,0-.6.12-.82.37s-.33.62-.33,1.11c0,.43.09.77.28,1.04ZM18.98,289.89h.57l1.03,1.72,1.03-1.72h.57l-1.36,2.14v1.45h-.49v-1.45l-1.36-2.14ZM4.64,253.35v-.43h2.91v.43h-1.21v3.16h-.49v-3.16h-1.21ZM5.76,289.89h1.43c.49,0,.86.17,1.13.52.24.32.36.72.36,1.21,0,.38-.07.72-.21,1.03-.25.54-.68.82-1.28.82h-1.43v-3.59ZM8.2,255.96c-.12-.24-.18-.58-.18-1.02v-2.01h.49v2.22c0,.26.05.48.15.65.15.26.39.39.74.39.42,0,.7-.14.85-.42.08-.15.12-.36.12-.62v-2.22h.49v2.01c0,.44-.06.78-.18,1.02-.22.43-.63.65-1.24.65s-1.02-.22-1.24-.65ZM9.39,289.89h2.6v.44h-2.13v1.09h1.97v.42h-1.97v1.22h2.17v.43h-2.64v-3.59ZM11.6,256.51v-3.59h.57l1.79,2.9v-2.9h.46v3.59h-.55l-1.81-2.89v2.89h-.46ZM9.77,74.17v-.51h3.49v.51h-1.45v3.79h-.59v-3.79h-1.45ZM10.24,105.84l-3.41-1.97.12-.22,3.41,1.97-.12.22ZM5.35,111.99h3.94v.25h-3.94v-.25ZM10.02,58.66l-3.41,1.97-.12-.22,3.41-1.97.12.22ZM9.9,118.03l.12.22-3.41,1.97-.12-.22,3.41-1.97ZM12.24,125.81l1.97-3.41.22.12-1.97,3.41-.22-.12ZM14.21,101.11l-1.97-3.41.22-.12,1.97,3.41-.22.12ZM11.25,133.67h1.72c.58,0,1.04.21,1.36.63.29.38.43.86.43,1.46,0,.46-.08.87-.25,1.24-.3.65-.81.98-1.54.98h-1.71v-4.3ZM12.93,290.34c.3-.37.71-.55,1.24-.55.45,0,.8.12,1.04.36s.39.51.41.82h-.47c-.05-.23-.16-.41-.32-.55-.16-.14-.38-.2-.66-.2-.35,0-.63.12-.84.37-.21.25-.32.63-.32,1.14,0,.42.1.76.29,1.02.19.26.48.39.86.39.35,0,.62-.14.8-.41.1-.15.17-.34.22-.57h.47c-.04.38-.18.69-.42.95-.28.31-.66.46-1.14.46-.41,0-.76-.13-1.04-.38-.37-.33-.55-.85-.55-1.55,0-.53.14-.96.42-1.3ZM15.32,256.51v-3.59h.49v3.59h-.49ZM15.61,137.97v-4.3h3.12v.53h-2.55v1.31h2.36v.5h-2.36v1.46h2.6v.51h-3.17ZM20.31,137.1c.23.31.58.47,1.03.47.42,0,.74-.17.96-.5.12-.17.2-.4.26-.69h.57c-.05.45-.22.83-.5,1.14-.34.37-.79.55-1.37.55-.49,0-.91-.15-1.25-.45-.44-.4-.66-1.02-.66-1.86,0-.64.17-1.16.5-1.56.36-.44.85-.66,1.49-.66.54,0,.96.14,1.25.43s.46.61.5.98h-.57c-.06-.28-.19-.5-.38-.66s-.45-.24-.8-.24c-.42,0-.75.15-1.01.45-.26.3-.38.75-.38,1.37,0,.5.12.91.35,1.23ZM19.43,252.93v3.59h-.55l-1.81-2.89v2.89h-.46v-3.59h.57l1.79,2.9v-2.9h.46ZM17.33,289.89h.55l1.3,3.59h-.53l-.36-1.07h-1.42l-.39,1.07h-.5l1.35-3.59ZM22.59,73.66h.59v4.3h-.59v-4.3ZM22.5,99.34h-2.65v-4.6h2.65v4.6ZM19.84,35.15h2.65v4.6h-2.65v-4.6ZM18.12,73.66h.69l2.15,3.48v-3.48h.56v4.3h-.65l-2.18-3.47v3.47h-.56v-4.3ZM15.48,77.56c.5,0,.84-.17,1.02-.51.1-.18.14-.43.14-.74v-2.66h.59v2.42c0,.53-.07.94-.21,1.22-.26.52-.76.78-1.49.78s-1.22-.26-1.48-.78c-.14-.29-.21-.69-.21-1.22v-2.42h.59v2.66c0,.31.06.57.18.78.18.31.47.47.89.47ZM12.46,37.98l1.97,3.41-.22.12-1.97-3.41.22-.12ZM14.21,62.81l.22.12-1.97,3.41-.22-.12,1.97-3.41ZM6.96,44.07l3.41,1.97-.12.22-3.41-1.97.12-.22ZM5.35,52.4h3.94v.25h-3.94v-.25ZM2.95,163.13l4.79,3.68.56-3.66,4.46,3.88-.26.3-3.92-3.4-.55,3.61-4.69-3.6v3.23h-.4v-4.04ZM2.93,299.26h66.49v25.07c0,1.14.91,2.06,2.04,2.06h69c1.12,0,2.03.92,2.03,2.06v11.62c0,1.13-.91,2.06-2.03,2.06H4.97c-1.13,0-2.04-.93-2.04-2.06v-40.81ZM142.68,343.58H4.63c-1.82,0-3.31-1.48-3.31-3.31v-41.02h.25v41.02c0,1.69,1.37,3.06,3.06,3.06h138.05v.25Z"/>
  <path class="cls-1" d="M124.16,336.92c.72,0,1.21-.26,1.47-.78.15-.28.22-.69.22-1.22v-2.41h-.58v2.66c0,.31-.05.55-.15.74-.17.33-.5.5-1,.5-.42,0-.7-.15-.88-.46-.11-.21-.17-.47-.17-.78v-2.66h-.58v2.41c0,.53.07.94.21,1.22.26.52.75.78,1.48.78Z"/>
  <polygon class="cls-1" points="17.59 290.42 17.01 292.01 18.13 292.01 17.59 290.42"/>
</svg>