<?xml version="1.0" encoding="UTF-8"?>
<svg id="silk_screen" xmlns="http://www.w3.org/2000/svg" width="50.8mm" height="128.5mm" viewBox="0 0 144 364.25">
  <defs>
    <style>
      .cls-1 {
        fill: #010101;
      }

      .cls-1, .cls-2 {
        stroke-width: 0px;
      }

      .cls-2 {
        fill: #231f20;
      }
    </style>
  </defs>
  <path class="cls-2" d="M85.75,18.06c.59.73,1.8.44,2.68-.06.3-.17.64,1.14.46,1.32-.19.18-.31.22-.42.28-.41.23-.81.37-1.22.41s-.8,0-1.18-.1c-.37-.11-.72-.3-1.04-.55-.32-.25-.58-.57-.8-.93s-.35-.75-.41-1.16c-.06-.4-.05-.79.04-1.17.09-.38.26-.74.5-1.07s.56-.62.97-.85c.33-.19.67-.31,1.01-.34.34-.04.68-.01,1,.07.33.08.63.22.92.4.29.18.54.4.75.65.13.15.27.3.42.47s.26.27.33.32l-4.02,2.32ZM87.97,15.64c-.3-.3-.6-.48-.91-.54-.3-.06-.64.02-1.02.23s-.61.47-.71.76c-.1.29-.09.64.02,1.05l2.61-1.51ZM89.68,18.67"/>
  <path class="cls-2" d="M40.7,17.94l-.18.47c-.06.16-.13.33-.19.52s-.09.33-.09.44c0,.09.02.16.05.23.04.06.07.12.11.17h-2.16c.19-.19.34-.43.44-.71l2.44-6.48c.06-.16.13-.33.19-.52.06-.18.09-.33.09-.44,0-.09-.02-.16-.05-.23-.04-.06-.07-.12-.11-.17h1.74l3.04,7.84c.1.28.25.52.44.71h-2.2s.08-.1.11-.17c.04-.06.05-.14.05-.23,0-.11-.03-.26-.09-.44s-.12-.36-.19-.52l-.18-.47h-3.28ZM43.49,16.52l-1.19-3.47h-.02l-1.07,3.47h2.28Z"/>
  <path class="cls-2" d="M51.35,19.89s-.08-.07-.12-.1-.09-.04-.14-.04c-.1,0-.26.03-.47.1-.21.06-.45.1-.73.1-.42,0-.83-.08-1.21-.24-.38-.16-.72-.38-1.01-.66-.29-.28-.52-.61-.69-.99-.17-.38-.26-.79-.26-1.24s.09-.86.26-1.24c.17-.38.4-.71.69-.99.29-.28.62-.5,1.01-.66.38-.16.79-.24,1.21-.24.16,0,.3,0,.41.03.11.02.22.04.32.07s.2.05.28.07c.08.02.14.03.19.03.06,0,.1-.01.14-.04s.08-.06.12-.1v2.18c-.34-.57-.82-.85-1.46-.85-.25,0-.47.04-.68.13-.2.09-.38.21-.53.36s-.26.34-.35.55c-.08.22-.13.45-.13.7s.04.49.13.7.2.39.35.55.32.27.53.36c.2.09.43.13.68.13.64,0,1.13-.28,1.46-.85v2.18Z"/>
  <path class="cls-2" d="M53.75,19.28c0,.14.03.24.1.3.06.06.13.12.2.18h-2.09c.07-.06.14-.12.2-.18s.1-.16.1-.3v-4.92c0-.14-.03-.24-.1-.3-.06-.06-.13-.12-.2-.18h1.79v5.4ZM53.91,12.25c0,.12-.02.23-.07.34-.05.1-.11.2-.19.28s-.18.14-.29.19c-.11.05-.23.07-.35.07s-.24-.02-.35-.07-.21-.11-.29-.19-.14-.17-.19-.28-.07-.22-.07-.34.02-.23.07-.34c.05-.1.11-.2.19-.28s.18-.14.29-.19.23-.07.35-.07.24.02.35.07c.11.05.21.11.29.19s.14.17.19.28c.05.1.07.22.07.34Z"/>
  <path class="cls-2" d="M59.54,11.22h1.79c-.07.06-.14.12-.2.18s-.1.16-.1.3v6.35c0,.18.02.32.06.42.04.1.09.18.16.24-.25,0-.47.07-.66.2-.19.13-.4.28-.63.43-.23.16-.5.3-.8.43-.31.13-.71.19-1.19.19-.45,0-.87-.08-1.26-.23-.39-.16-.73-.37-1.02-.65s-.52-.61-.68-.99c-.17-.38-.25-.8-.25-1.26s.08-.88.25-1.26c.17-.38.4-.71.68-.99s.63-.49,1.02-.65c.39-.16.81-.23,1.26-.23.36,0,.66.04.89.13s.46.19.7.3v-2.9ZM59.54,15.73c-.18-.21-.4-.37-.66-.48-.26-.11-.54-.17-.82-.17-.26,0-.49.04-.71.13s-.41.2-.58.35c-.17.15-.3.33-.4.55-.1.21-.14.45-.14.71s.05.5.14.71c.1.21.23.39.4.55.17.15.36.27.58.35s.46.13.71.13c.28,0,.55-.06.82-.17.26-.11.48-.27.66-.48v-2.18Z"/>
  <path class="cls-2" d="M66.23,14.36c0-.14-.03-.24-.1-.3-.06-.06-.13-.12-.2-.18h2.09c-.07.06-.14.12-.2.18-.06.06-.1.16-.1.3v3.68c0,.18.02.32.06.42.04.1.09.18.16.24-.25.02-.46.09-.65.22-.18.13-.38.27-.58.43-.2.15-.43.29-.69.41-.26.12-.58.19-.96.19-.43,0-.82-.08-1.16-.25-.34-.16-.63-.38-.87-.65-.24-.27-.42-.58-.55-.93s-.19-.72-.19-1.1v-2.66c0-.14-.03-.24-.1-.3-.06-.06-.13-.12-.2-.18h2.09c-.07.06-.14.12-.2.18-.06.06-.1.16-.1.3v3c0,.36.11.65.34.87.22.22.54.33.94.33.22,0,.42-.05.61-.16.19-.1.38-.23.57-.38v-3.66Z"/>
  <path class="cls-2" d="M68.61,17.9c.21.25.45.45.71.61.27.16.58.24.93.24.32,0,.55-.07.7-.2s.22-.3.22-.51c0-.16-.06-.29-.18-.4-.12-.11-.27-.21-.45-.31-.18-.1-.37-.19-.58-.29s-.4-.22-.58-.37c-.18-.14-.33-.32-.45-.53-.12-.21-.18-.46-.18-.77,0-.26.05-.49.14-.7.1-.21.23-.39.4-.53s.37-.26.6-.34c.23-.08.49-.12.77-.12.14,0,.27,0,.39.03s.24.04.34.07c.1.02.2.05.28.07.08.02.14.03.19.03.06,0,.1-.01.14-.04s.08-.06.12-.1v1.8c-.11-.19-.27-.35-.47-.47s-.45-.19-.73-.19c-.16,0-.31.04-.46.11-.15.07-.22.2-.22.38,0,.13.06.24.18.32.12.09.27.18.45.26.18.09.37.18.58.29.21.1.4.23.58.38.18.15.33.34.45.56.12.22.18.49.18.8s-.06.6-.18.85-.28.45-.49.61c-.2.16-.44.29-.71.37-.27.08-.56.13-.85.13-.16,0-.31-.01-.45-.03-.14-.02-.27-.04-.4-.07-.12-.02-.23-.05-.33-.07s-.18-.03-.25-.03c-.09,0-.16.01-.22.04-.06.02-.11.06-.17.1v-1.99Z"/>
  <path class="cls-2" d="M84.4,11.22c-.19.19-.34.43-.44.71l-2.44,6.48c-.06.16-.13.33-.19.52s-.09.33-.09.44c0,.09.02.16.05.23s.07.12.11.17h-1.73l-2.96-7.84c-.1-.28-.25-.52-.44-.71h2.23s-.08.1-.11.17c-.04.06-.05.14-.05.23,0,.11.03.26.1.44.06.18.12.36.18.52l1.73,4.9h.02l1.74-4.9c.06-.16.12-.33.18-.52.06-.18.1-.33.1-.44,0-.09-.02-.16-.05-.23-.04-.06-.07-.12-.11-.17h2.18Z"/>
  <path class="cls-2" d="M90.58,19.76c.07-.06.14-.12.2-.18.06-.06.1-.16.1-.3v-4.92c0-.14-.03-.24-.1-.3-.06-.06-.13-.12-.2-.18h1.69v.94h.02c.04-.28.16-.51.37-.68.2-.17.45-.27.75-.28.11,0,.24-.04.38-.08.14-.05.26-.13.37-.25v1.91c-.16-.12-.38-.18-.66-.18-.18,0-.38.05-.58.16s-.39.32-.55.65v3.23c0,.14.03.24.1.3.06.06.13.12.2.18h-2.09Z"/>
  <path class="cls-2" d="M94.49,17.9c.21.25.45.45.71.61.27.16.58.24.93.24.32,0,.55-.07.7-.2.14-.13.22-.3.22-.51,0-.16-.06-.29-.18-.4-.12-.11-.27-.21-.45-.31-.18-.1-.37-.19-.58-.29-.21-.1-.4-.22-.58-.37-.18-.14-.33-.32-.45-.53s-.18-.46-.18-.77c0-.26.05-.49.14-.7.1-.21.23-.39.4-.53s.37-.26.6-.34c.23-.08.49-.12.77-.12.14,0,.27,0,.39.03s.24.04.34.07c.1.02.2.05.28.07.08.02.14.03.19.03.06,0,.1-.01.14-.04.04-.02.08-.06.12-.1v1.8c-.11-.19-.27-.35-.47-.47s-.45-.19-.73-.19c-.16,0-.31.04-.46.11-.15.07-.22.2-.22.38,0,.13.06.24.18.32.12.09.27.18.45.26.18.09.37.18.58.29s.4.23.58.38c.18.15.33.34.45.56.12.22.18.49.18.8s-.06.6-.18.85-.28.45-.49.61c-.2.16-.44.29-.71.37-.27.08-.56.13-.85.13-.16,0-.31-.01-.45-.03-.14-.02-.27-.04-.4-.07-.12-.02-.23-.05-.33-.07-.1-.02-.18-.03-.25-.03-.09,0-.16.01-.22.04-.06.02-.11.06-.17.1v-1.99Z"/>
  <path class="cls-2" d="M100.97,19.28c0,.14.03.24.1.3.06.06.13.12.2.18h-2.09c.07-.06.14-.12.2-.18.06-.06.1-.16.1-.3v-4.92c0-.14-.03-.24-.1-.3-.06-.06-.13-.12-.2-.18h1.79v5.4ZM101.13,12.25c0,.12-.02.23-.07.34s-.11.2-.19.28-.18.14-.29.19c-.11.05-.23.07-.35.07s-.24-.02-.35-.07c-.11-.05-.21-.11-.29-.19-.08-.08-.14-.17-.19-.28s-.07-.22-.07-.34.02-.23.07-.34c.05-.1.11-.2.19-.28.08-.08.18-.14.29-.19.11-.05.23-.07.35-.07s.24.02.35.07c.11.05.21.11.29.19s.14.17.19.28c.05.1.07.22.07.34Z"/>
  <path class="cls-2" d="M101.96,16.82c0-.44.09-.85.26-1.23s.41-.71.71-1c.3-.28.65-.51,1.04-.67.4-.16.81-.24,1.24-.24s.85.08,1.24.24c.4.16.74.38,1.04.67.3.28.54.62.71,1s.26.79.26,1.23-.09.85-.26,1.23-.41.71-.71,1c-.3.28-.65.51-1.04.67-.4.16-.81.24-1.24.24s-.85-.08-1.24-.24c-.4-.16-.74-.38-1.04-.67-.3-.28-.54-.62-.71-1s-.26-.79-.26-1.23ZM103.45,16.82c0,.25.05.48.14.69.1.21.23.4.39.55.16.16.35.28.56.37.21.09.44.13.68.13s.47-.04.68-.13c.21-.09.4-.21.56-.37.16-.16.29-.34.39-.55s.14-.44.14-.69-.05-.48-.14-.69-.23-.4-.39-.55c-.16-.16-.35-.28-.56-.37s-.44-.13-.68-.13-.47.04-.68.13c-.21.09-.4.21-.56.37-.16.16-.29.34-.39.55-.1.21-.14.44-.14.69Z"/>
  <path class="cls-2" d="M50.21,29.99c.06-.04.11-.08.14-.13.04-.05.06-.11.06-.19v-5.5s.06.06.1.09c.04.03.08.04.14.04s.12,0,.21-.02c.08-.01.18-.03.28-.04.11-.02.21-.03.32-.04.11-.01.21-.02.31-.02.43,0,.84.08,1.22.22.38.15.71.35.99.62.28.26.5.57.67.92.16.35.24.74.24,1.15s-.08.82-.22,1.18-.36.66-.63.92-.6.46-.98.6c-.38.14-.81.22-1.28.22h-1.55ZM51.95,29c.21,0,.43-.04.66-.12.22-.08.43-.2.61-.36.18-.16.33-.36.44-.6s.17-.51.17-.83c0-.27-.06-.53-.17-.76-.11-.23-.26-.44-.44-.6-.18-.17-.38-.3-.6-.4-.22-.1-.45-.14-.66-.14-.11,0-.19,0-.26.01-.07,0-.14.01-.22.02v3.78h.48Z"/>
  <path class="cls-2" d="M58.84,29.99v-.38h-.02c-.11.2-.26.33-.46.4s-.42.11-.65.11c-.27,0-.53-.05-.78-.16-.25-.1-.48-.25-.68-.44-.2-.19-.36-.41-.48-.66s-.18-.53-.18-.84.06-.58.18-.84.28-.47.48-.66c.2-.19.42-.33.68-.44.25-.1.51-.16.78-.16.24,0,.45.03.63.08.18.05.34.12.48.2s.26.16.37.25.21.17.3.24c.07.06.16.1.25.12.09.02.15.03.18.03-.05.03-.09.08-.14.14s-.06.13-.06.2v2.48c0,.09.02.16.06.2.04.04.09.08.14.12h-1.07ZM58.78,27.3c-.14-.12-.29-.22-.45-.3-.16-.08-.35-.12-.56-.12-.16,0-.31.03-.46.09-.14.06-.27.15-.38.25-.11.11-.19.23-.26.37-.06.14-.09.29-.09.44s.03.3.09.44c.06.14.15.27.26.37.11.11.24.19.38.25.14.06.3.09.46.09.21,0,.39-.04.56-.12.16-.08.31-.18.45-.3v-1.47Z"/>
  <path class="cls-2" d="M61.53,29.67c0,.09.02.16.06.2.04.04.09.08.14.12h-1.39s.09-.08.14-.12c.04-.04.06-.11.06-.2v-3.28c0-.09-.02-.16-.06-.2-.04-.04-.09-.08-.14-.12h1.19v3.6ZM61.64,24.99c0,.08-.02.15-.05.22-.03.07-.07.13-.13.18-.05.05-.12.1-.19.13-.08.03-.15.05-.23.05s-.16-.02-.23-.05c-.07-.03-.14-.07-.19-.13-.05-.05-.1-.11-.13-.18-.03-.07-.05-.14-.05-.22s.02-.15.05-.22.07-.13.13-.18c.05-.05.12-.1.19-.13.08-.03.15-.05.23-.05s.16.02.23.05c.07.03.14.07.19.13.05.05.1.11.13.18.03.07.05.14.05.22Z"/>
  <path class="cls-2" d="M62.1,28.75c.14.17.3.3.48.41.18.11.39.16.62.16.21,0,.37-.04.46-.13.1-.09.14-.2.14-.34,0-.11-.04-.2-.12-.27-.08-.07-.18-.14-.3-.2-.12-.06-.25-.13-.39-.2-.14-.07-.27-.15-.39-.24-.12-.1-.22-.21-.3-.35-.08-.14-.12-.31-.12-.51,0-.17.03-.33.1-.46.06-.14.15-.26.26-.36.11-.1.25-.17.4-.23.16-.05.33-.08.51-.08.09,0,.18,0,.26.02.08.01.16.03.23.04s.13.03.18.04c.05.01.1.02.13.02.04,0,.07,0,.1-.02.03-.02.05-.04.08-.06v1.2c-.08-.13-.18-.23-.32-.32-.14-.08-.3-.12-.48-.12-.11,0-.21.02-.31.07-.1.05-.15.13-.15.26,0,.09.04.16.12.22.08.06.18.12.3.18s.25.12.39.19.27.15.39.26c.12.1.22.23.3.37.08.15.12.32.12.53s-.04.4-.12.56-.19.3-.32.41-.29.19-.48.25c-.18.06-.37.08-.57.08-.11,0-.21,0-.3-.02-.09-.01-.18-.03-.27-.04-.08-.02-.15-.03-.22-.04s-.12-.02-.16-.02c-.06,0-.11,0-.14.02-.04.02-.08.04-.11.06v-1.33Z"/>
  <path class="cls-2" d="M69.35,26.07v.02c-.09.04-.18.11-.26.22-.08.1-.16.22-.22.35l-2.25,4.43s-.03.06-.04.1c-.02.04-.04.08-.06.12s-.04.08-.05.12c-.01.04-.02.07-.02.09,0,.06.01.1.04.14.02.03.06.07.1.11h-1.47v-.02c.12-.06.21-.13.29-.23s.14-.19.18-.28l.96-1.96-1.32-2.62c-.06-.12-.12-.23-.18-.32-.06-.09-.14-.18-.23-.26h1.48s-.08.07-.1.11-.04.08-.04.14c0,.04.01.09.04.15s.06.12.08.18l.77,1.66h.02l.77-1.66c.03-.06.05-.12.08-.18s.04-.11.04-.15c0-.06-.01-.11-.04-.14-.02-.03-.06-.07-.1-.11h1.52Z"/>
  <path class="cls-2" d="M76,25.69c-.12-.14-.28-.26-.46-.36-.19-.09-.43-.14-.73-.14-.27,0-.52.05-.76.14-.24.1-.45.23-.63.4-.18.17-.33.38-.44.62-.11.24-.16.5-.16.79s.05.55.16.79.25.44.44.62c.18.17.39.31.63.4s.49.14.76.14c.3,0,.54-.05.73-.14.19-.09.34-.21.46-.36v1.52s-.08-.08-.13-.1c-.03-.01-.05-.02-.07-.02-.02,0-.04,0-.07,0-.06,0-.17.02-.33.06-.16.04-.36.06-.59.06-.43,0-.83-.07-1.2-.22-.37-.15-.69-.35-.96-.62-.27-.26-.49-.58-.64-.94s-.24-.76-.24-1.2.08-.83.24-1.2.37-.68.64-.94c.27-.26.59-.47.96-.62.37-.15.77-.22,1.2-.22.12,0,.22,0,.32.02.09.01.18.03.25.04.08.02.14.03.2.04.06.01.11.02.15.02.06,0,.12-.01.16-.04.04-.03.08-.06.12-.08v1.52Z"/>
  <path class="cls-2" d="M76.63,28.03c0-.29.06-.57.18-.82.12-.25.28-.47.48-.66s.43-.34.7-.44c.26-.11.54-.16.83-.16s.56.05.83.16c.26.11.5.25.7.44s.36.41.48.66c.12.25.18.53.18.82s-.06.57-.18.82c-.12.25-.28.48-.48.66-.2.19-.43.34-.7.44-.26.11-.54.16-.83.16s-.56-.05-.83-.16c-.26-.11-.5-.25-.7-.44-.2-.19-.36-.41-.48-.66-.12-.25-.18-.53-.18-.82ZM77.62,28.03c0,.17.03.32.1.46.06.14.15.26.26.37s.24.19.38.24c.14.06.29.09.45.09s.31-.03.45-.09c.14-.06.27-.14.38-.24s.2-.23.26-.37c.06-.14.1-.29.1-.46s-.03-.32-.1-.46c-.06-.14-.15-.26-.26-.37s-.23-.19-.38-.24c-.14-.06-.29-.09-.45-.09s-.31.03-.45.09c-.14.06-.27.14-.38.24s-.2.23-.26.37c-.06.14-.1.29-.1.46Z"/>
  <path class="cls-2" d="M82.66,29.67c0,.09.02.16.06.2.04.04.09.08.14.12h-1.39s.09-.08.14-.12c.04-.04.06-.11.06-.2v-2.46c0-.12-.01-.22-.04-.28-.03-.06-.06-.12-.1-.16.17-.01.31-.06.43-.15.12-.09.25-.18.39-.28.14-.1.29-.19.46-.28.17-.08.38-.12.64-.12.29,0,.54.05.77.16s.42.25.58.43.28.39.36.62c.08.23.12.48.12.74v1.78c0,.09.02.16.06.2.04.04.09.08.14.12h-1.39s.09-.08.14-.12c.04-.04.06-.11.06-.2v-2c0-.24-.07-.43-.22-.58s-.36-.22-.62-.22c-.14,0-.28.03-.4.1s-.25.15-.38.26v2.44Z"/>
  <path class="cls-2" d="M87.95,26.07v1.01c-.03-.06-.08-.1-.13-.12-.05-.02-.11-.03-.18-.03h-.42v2.74c0,.09.02.16.06.2.04.04.09.08.14.12h-1.39s.09-.08.14-.12c.04-.04.06-.11.06-.2v-2.74h-.62l1.61-2.18v1.31h.72Z"/>
  <path class="cls-2" d="M88.16,29.99s.09-.08.14-.12c.04-.04.06-.11.06-.2v-3.28c0-.09-.02-.16-.06-.2-.04-.04-.09-.08-.14-.12h1.13v.62h.02c.03-.19.11-.34.24-.45s.3-.18.5-.19c.08,0,.16-.02.25-.06.09-.03.17-.09.24-.17v1.27c-.11-.08-.25-.12-.44-.12-.12,0-.25.03-.39.1s-.26.21-.36.43v2.15c0,.09.02.16.06.2.04.04.09.08.14.12h-1.39Z"/>
  <path class="cls-2" d="M90.85,28.03c0-.29.06-.57.18-.82.12-.25.28-.47.48-.66s.43-.34.7-.44c.26-.11.54-.16.83-.16s.56.05.83.16c.26.11.5.25.7.44.2.19.36.41.48.66.12.25.18.53.18.82s-.06.57-.18.82c-.12.25-.28.48-.48.66-.2.19-.43.34-.7.44-.26.11-.54.16-.83.16s-.56-.05-.83-.16c-.26-.11-.5-.25-.7-.44-.2-.19-.36-.41-.48-.66-.12-.25-.18-.53-.18-.82ZM91.85,28.03c0,.17.03.32.1.46.06.14.15.26.26.37s.23.19.38.24c.14.06.29.09.45.09s.31-.03.45-.09c.14-.06.27-.14.38-.24s.2-.23.26-.37c.06-.14.1-.29.1-.46s-.03-.32-.1-.46c-.06-.14-.15-.26-.26-.37s-.24-.19-.38-.24c-.14-.06-.29-.09-.45-.09s-.31.03-.45.09c-.14.06-.27.14-.38.24s-.2.23-.26.37c-.06.14-.1.29-.1.46Z"/>
  <path class="cls-2" d="M96.86,29.67c0,.09.02.16.06.2.04.04.09.08.14.12h-1.39s.09-.08.14-.12c.04-.04.06-.11.06-.2v-5.06c0-.09-.02-.16-.06-.2-.04-.04-.09-.08-.14-.12h1.19v5.38Z"/>
  <path class="cls-2" d="M98.64,29.67c0,.09.02.16.06.2.04.04.09.08.14.12h-1.39s.09-.08.14-.12c.04-.04.06-.11.06-.2v-5.06c0-.09-.02-.16-.06-.2-.04-.04-.09-.08-.14-.12h1.19v5.38Z"/>
  <path class="cls-2" d="M100.63,28.81c.39.49.88.56,1.47.22.2-.11.36-.26.47-.43.12-.17.23-.36.37-.13s.44.71.4.72c-.04,0-.09.02-.14.05-.08.05-.18.13-.3.25s-.28.23-.46.34c-.27.15-.54.25-.81.27s-.53,0-.78-.07c-.25-.07-.48-.2-.69-.37-.21-.17-.39-.38-.53-.62s-.23-.5-.27-.77c-.04-.27-.03-.53.03-.78.06-.25.17-.49.33-.71.16-.22.38-.41.64-.57.22-.13.45-.2.68-.23.23-.02.45,0,.67.05.22.06.42.15.61.27.19.12.36.27.5.43.09.1.18.2.28.31s.17.18.22.21l-2.68,1.55ZM102.02,27.2c-.2-.2-.4-.32-.6-.36-.2-.04-.43.01-.68.16s-.41.31-.47.51c-.07.19-.06.43.01.7l1.74-1Z"/>
  <path class="cls-2" d="M106.94,24.3h1.19s-.09.08-.14.12c-.04.04-.06.11-.06.2v4.23c0,.12.01.22.04.28.03.06.06.12.1.16-.17,0-.31.04-.44.13-.13.09-.27.18-.42.29s-.33.2-.54.28-.47.13-.8.13c-.3,0-.58-.05-.84-.16-.26-.1-.49-.25-.68-.43-.19-.18-.34-.4-.46-.66-.11-.26-.17-.54-.17-.84s.06-.58.17-.84c.11-.26.26-.48.46-.66.19-.18.42-.33.68-.43.26-.1.54-.16.84-.16.24,0,.44.03.59.09.16.06.31.13.46.2v-1.94ZM106.94,27.31c-.12-.14-.26-.25-.44-.32s-.36-.11-.54-.11c-.17,0-.33.03-.48.08-.15.06-.28.13-.39.24-.11.1-.2.22-.26.36-.06.14-.1.3-.1.48s.03.33.1.48c.06.14.15.26.26.36.11.1.24.18.39.24.15.06.31.08.48.08.19,0,.37-.04.54-.11s.32-.18.44-.32v-1.46Z"/>
  <rect class="cls-2" x="38.53" y="21.73" width="69.16" height=".5"/>
  <g>
    <path class="cls-2" d="M13.26,73.66v.51h-1.45v3.79h-.59v-3.79h-1.45v-.51h3.49Z"/>
    <path class="cls-2" d="M14.42,73.66v2.66c0,.31.06.57.18.78.18.31.47.47.89.47.5,0,.84-.17,1.02-.51.1-.18.14-.43.14-.74v-2.66h.59v2.42c0,.53-.07.94-.21,1.22-.26.52-.76.78-1.49.78s-1.22-.26-1.48-.78c-.14-.29-.21-.69-.21-1.22v-2.42h.59Z"/>
    <path class="cls-2" d="M18.12,73.66h.69l2.15,3.48v-3.48h.56v4.3h-.65l-2.18-3.47v3.47h-.56v-4.3Z"/>
    <path class="cls-2" d="M22.59,73.66h.59v4.3h-.59v-4.3Z"/>
    <path class="cls-2" d="M24.12,73.66h.69l2.15,3.48v-3.48h.56v4.3h-.65l-2.18-3.47v3.47h-.56v-4.3Z"/>
    <path class="cls-2" d="M31.32,73.78c.42.22.68.62.77,1.18h-.58c-.07-.31-.21-.54-.43-.69-.22-.14-.49-.22-.82-.22-.39,0-.72.15-.99.45-.27.3-.4.74-.4,1.34,0,.51.11.93.33,1.25s.58.48,1.08.48c.38,0,.7-.11.95-.34.25-.23.38-.59.38-1.09h-1.35v-.48h1.89v2.3h-.38l-.14-.55c-.19.22-.37.37-.52.45-.25.14-.57.22-.96.22-.5,0-.93-.17-1.29-.5-.39-.41-.59-.98-.59-1.71s.19-1.29.58-1.72c.37-.41.84-.61,1.42-.61.4,0,.74.08,1.03.23Z"/>
  </g>
  <g>
    <path class="cls-2" d="M7.54,252.93v.43h-1.21v3.16h-.49v-3.16h-1.21v-.43h2.91Z"/>
    <path class="cls-2" d="M8.52,252.93v2.22c0,.26.05.48.15.65.15.26.39.39.74.39.42,0,.7-.14.85-.42.08-.15.12-.36.12-.62v-2.22h.49v2.01c0,.44-.06.78-.18,1.02-.22.43-.63.65-1.24.65s-1.02-.22-1.24-.65c-.12-.24-.18-.58-.18-1.02v-2.01h.49Z"/>
    <path class="cls-2" d="M11.6,252.93h.57l1.79,2.9v-2.9h.46v3.59h-.55l-1.81-2.89v2.89h-.46v-3.59Z"/>
    <path class="cls-2" d="M15.32,252.93h.49v3.59h-.49v-3.59Z"/>
    <path class="cls-2" d="M16.6,252.93h.57l1.79,2.9v-2.9h.46v3.59h-.55l-1.81-2.89v2.89h-.46v-3.59Z"/>
    <path class="cls-2" d="M22.6,253.03c.35.19.57.52.65.98h-.48c-.06-.26-.18-.45-.36-.57-.18-.12-.41-.18-.68-.18-.33,0-.6.12-.82.37s-.33.62-.33,1.11c0,.43.09.77.28,1.04.18.27.48.4.9.4.32,0,.58-.09.79-.28.21-.19.31-.49.32-.91h-1.12v-.4h1.57v1.92h-.31l-.12-.46c-.16.18-.31.31-.43.38-.21.12-.48.18-.8.18-.42,0-.78-.14-1.08-.41-.33-.35-.49-.82-.49-1.42s.16-1.08.48-1.43c.3-.34.7-.51,1.18-.51.33,0,.62.07.86.2Z"/>
  </g>
  <g>
    <path class="cls-2" d="M44.55,253.18c.25.24.39.51.41.82h-.47c-.05-.23-.16-.41-.32-.55-.16-.14-.38-.2-.66-.2-.35,0-.63.12-.84.37-.21.25-.32.63-.32,1.14,0,.42.1.76.29,1.02.19.26.48.39.86.39.35,0,.62-.14.8-.41.1-.15.17-.34.22-.57h.47c-.04.38-.18.69-.42.95-.28.31-.66.46-1.14.46-.41,0-.76-.13-1.04-.38-.37-.33-.55-.85-.55-1.55,0-.53.14-.96.42-1.3.3-.37.71-.55,1.24-.55.45,0,.8.12,1.04.36Z"/>
    <path class="cls-2" d="M46.15,252.92v2.22c0,.26.05.48.15.65.15.26.39.39.74.39.42,0,.7-.14.85-.42.08-.15.12-.36.12-.62v-2.22h.49v2.01c0,.44-.06.78-.18,1.02-.22.43-.63.65-1.24.65s-1.02-.22-1.24-.65c-.12-.24-.18-.58-.18-1.02v-2.01h.49Z"/>
    <path class="cls-2" d="M51.85,252.92v.43h-1.21v3.16h-.49v-3.16h-1.21v-.43h2.91Z"/>
    <path class="cls-2" d="M55.16,253.44c.24.32.36.72.36,1.22,0,.54-.14.98-.41,1.34-.32.42-.77.62-1.36.62-.55,0-.99-.18-1.3-.55-.28-.35-.42-.8-.42-1.33,0-.49.12-.9.36-1.25.31-.44.77-.66,1.37-.66s1.1.2,1.41.61ZM54.73,255.72c.19-.31.29-.66.29-1.06,0-.42-.11-.76-.33-1.02-.22-.26-.52-.39-.9-.39s-.67.13-.91.38-.35.63-.35,1.13c0,.4.1.73.3,1,.2.27.53.41.98.41s.74-.15.93-.46Z"/>
    <path class="cls-2" d="M56.14,252.92h2.49v.44h-2v1.09h1.76v.43h-1.76v1.63h-.49v-3.59Z"/>
    <path class="cls-2" d="M59.19,252.92h2.49v.44h-2v1.09h1.76v.43h-1.76v1.63h-.49v-3.59Z"/>
  </g>
  <g>
    <path class="cls-2" d="M84.8,252.92h1.63c.27,0,.49.04.66.12.33.15.5.44.5.85,0,.21-.04.39-.13.53-.09.14-.21.25-.37.33.14.06.25.13.32.22.07.09.11.24.12.45l.02.48c0,.14.02.24.03.3.03.11.08.19.16.22v.08h-.6s-.03-.07-.04-.12-.02-.14-.02-.28l-.03-.6c-.01-.23-.1-.39-.25-.47-.09-.04-.23-.07-.42-.07h-1.07v1.54h-.49v-3.59ZM86.38,254.56c.22,0,.4-.05.53-.14.13-.09.19-.26.19-.49,0-.26-.09-.43-.27-.52-.1-.05-.23-.07-.39-.07h-1.15v1.23h1.09Z"/>
    <path class="cls-2" d="M88.4,252.92h2.6v.44h-2.13v1.09h1.97v.42h-1.97v1.22h2.17v.43h-2.64v-3.59Z"/>
    <path class="cls-2" d="M92.01,255.35c.01.2.06.37.14.5.16.24.43.36.82.36.18,0,.34-.03.48-.08.28-.1.42-.28.42-.54,0-.2-.06-.33-.18-.42-.12-.08-.31-.15-.56-.21l-.47-.11c-.31-.07-.52-.15-.65-.24-.22-.15-.33-.37-.33-.67,0-.32.11-.59.33-.79.22-.21.52-.31.92-.31.37,0,.68.09.93.27.26.18.38.47.38.87h-.46c-.02-.19-.07-.34-.15-.44-.14-.19-.38-.28-.72-.28-.27,0-.47.06-.59.18-.12.12-.18.26-.18.42,0,.18.07.3.21.39.09.05.3.12.63.2l.49.11c.24.06.42.13.54.23.22.17.33.41.33.73,0,.4-.14.68-.42.85-.28.17-.61.26-.98.26-.44,0-.78-.11-1.02-.34-.25-.23-.37-.53-.36-.92h.46Z"/>
  </g>
  <g>
    <path class="cls-2" d="M116.71,252.93h.55l1.3,3.59h-.53l-.36-1.07h-1.42l-.39,1.07h-.5l1.35-3.59ZM117.51,255.05l-.54-1.58-.58,1.58h1.12Z"/>
    <path class="cls-2" d="M121.54,253.19c.25.24.38.51.41.82h-.47c-.05-.23-.16-.41-.32-.55-.16-.13-.38-.2-.66-.2-.35,0-.63.12-.84.37-.21.25-.32.63-.32,1.14,0,.42.1.76.29,1.02s.48.39.86.39c.35,0,.62-.14.8-.41.1-.14.17-.33.22-.57h.47c-.04.38-.18.69-.42.95-.28.31-.66.46-1.14.46-.41,0-.76-.13-1.04-.38-.37-.33-.55-.85-.55-1.55,0-.53.14-.96.42-1.3.3-.37.71-.55,1.24-.55.45,0,.8.12,1.04.36Z"/>
    <path class="cls-2" d="M125.15,253.19c.25.24.39.51.41.82h-.47c-.05-.23-.16-.41-.32-.55-.16-.13-.38-.2-.66-.2-.35,0-.63.12-.84.37-.21.25-.32.63-.32,1.14,0,.42.1.76.29,1.02.19.26.48.39.86.39.35,0,.62-.14.8-.41.1-.14.17-.33.22-.57h.47c-.04.38-.18.69-.42.95-.28.31-.66.46-1.14.46-.41,0-.76-.13-1.04-.38-.37-.33-.55-.85-.55-1.55,0-.53.14-.96.42-1.3.3-.37.71-.55,1.24-.55.45,0,.8.12,1.04.36Z"/>
    <path class="cls-2" d="M126.27,252.93h2.6v.44h-2.13v1.09h1.97v.42h-1.97v1.22h2.17v.43h-2.64v-3.59Z"/>
    <path class="cls-2" d="M129.56,252.93h.57l1.79,2.9v-2.9h.46v3.59h-.55l-1.82-2.89v2.89h-.46v-3.59Z"/>
    <path class="cls-2" d="M135.78,252.93v.43h-1.21v3.16h-.49v-3.16h-1.21v-.43h2.91Z"/>
  </g>
  <g>
    <path class="cls-2" d="M5.76,289.89h1.43c.49,0,.86.17,1.13.52.24.32.36.72.36,1.21,0,.38-.07.72-.21,1.03-.25.54-.68.82-1.28.82h-1.43v-3.59ZM7.1,293.06c.16,0,.29-.02.4-.05.18-.06.34-.19.45-.37.09-.15.16-.33.2-.56.02-.14.04-.26.04-.38,0-.44-.09-.79-.26-1.04-.17-.25-.45-.37-.83-.37h-.84v2.75h.85Z"/>
    <path class="cls-2" d="M9.39,289.89h2.6v.44h-2.13v1.09h1.97v.42h-1.97v1.22h2.17v.43h-2.64v-3.59Z"/>
    <path class="cls-2" d="M15.22,290.15c.25.24.39.51.41.82h-.47c-.05-.23-.16-.41-.32-.55-.16-.14-.38-.2-.66-.2-.35,0-.63.12-.84.37-.21.25-.32.63-.32,1.14,0,.42.1.76.29,1.02.19.26.48.39.86.39.35,0,.62-.14.8-.41.1-.15.17-.34.22-.57h.47c-.04.38-.18.69-.42.95-.28.31-.66.46-1.14.46-.41,0-.76-.13-1.04-.38-.37-.33-.55-.85-.55-1.55,0-.53.14-.96.42-1.3.3-.37.71-.55,1.24-.55.45,0,.8.12,1.04.36Z"/>
    <path class="cls-2" d="M17.33,289.89h.55l1.3,3.59h-.53l-.36-1.07h-1.42l-.39,1.07h-.5l1.35-3.59ZM18.13,292.01l-.54-1.58-.58,1.58h1.12Z"/>
    <path class="cls-2" d="M18.98,289.89h.57l1.03,1.72,1.03-1.72h.57l-1.36,2.14v1.45h-.49v-1.45l-1.36-2.14Z"/>
  </g>
  <g>
    <path class="cls-2" d="M41.95,289.88l1.03,3.05,1.02-3.05h.54l-1.31,3.59h-.51l-1.31-3.59h.54Z"/>
    <path class="cls-2" d="M47.95,290.4c.24.32.36.72.36,1.22,0,.54-.14.98-.41,1.34-.32.42-.77.62-1.36.62-.55,0-.99-.18-1.3-.55-.28-.35-.42-.8-.42-1.33,0-.49.12-.9.36-1.25.31-.44.77-.66,1.37-.66s1.1.2,1.41.61ZM47.52,292.68c.19-.31.29-.66.29-1.06,0-.42-.11-.76-.33-1.02-.22-.26-.52-.39-.9-.39s-.67.13-.91.38-.35.63-.35,1.13c0,.4.1.73.3,1,.2.27.53.41.98.41s.74-.15.93-.46Z"/>
    <path class="cls-2" d="M48.89,289.88h.49v3.16h1.8v.43h-2.29v-3.59Z"/>
    <path class="cls-2" d="M52.19,289.88v2.22c0,.26.05.48.15.65.15.26.39.39.74.39.42,0,.7-.14.85-.42.08-.15.12-.36.12-.62v-2.22h.49v2.01c0,.44-.06.78-.18,1.02-.22.43-.63.65-1.24.65s-1.02-.22-1.24-.65c-.12-.24-.18-.58-.18-1.02v-2.01h.49Z"/>
    <path class="cls-2" d="M55.27,289.88h.7l1.03,3.03,1.02-3.03h.69v3.59h-.46v-2.12c0-.07,0-.19,0-.36,0-.17,0-.35,0-.54l-1.02,3.02h-.48l-1.03-3.02v.11c0,.09,0,.22,0,.4,0,.18,0,.31,0,.4v2.12h-.46v-3.59Z"/>
    <path class="cls-2" d="M59.49,289.88h2.6v.44h-2.13v1.09h1.97v.42h-1.97v1.22h2.17v.43h-2.64v-3.59Z"/>
  </g>
  <g>
    <path class="cls-2" d="M78.95,289.88h2.6v.44h-2.13v1.09h1.97v.42h-1.97v1.22h2.17v.43h-2.64v-3.59Z"/>
    <path class="cls-2" d="M82.24,289.88h.57l1.79,2.9v-2.9h.46v3.59h-.55l-1.81-2.89v2.89h-.46v-3.59Z"/>
    <path class="cls-2" d="M86.14,289.88l1.03,3.05,1.02-3.05h.54l-1.31,3.59h-.51l-1.31-3.59h.54Z"/>
    <path class="cls-2" d="M89.17,289.88h.7l1.03,3.03,1.02-3.03h.69v3.59h-.46v-2.12c0-.07,0-.19,0-.36,0-.17,0-.35,0-.54l-1.02,3.02h-.48l-1.03-3.02v.11c0,.09,0,.22,0,.4,0,.18,0,.31,0,.4v2.12h-.46v-3.59Z"/>
    <path class="cls-2" d="M96.3,290.4c.24.32.36.72.36,1.22,0,.54-.14.98-.41,1.34-.32.42-.77.62-1.37.62-.55,0-.99-.18-1.3-.55-.28-.35-.42-.8-.42-1.33,0-.49.12-.9.36-1.25.31-.44.77-.66,1.37-.66s1.1.2,1.41.61ZM95.88,292.68c.19-.31.29-.66.29-1.06,0-.42-.11-.76-.33-1.02-.22-.26-.52-.39-.9-.39s-.67.13-.91.38-.35.63-.35,1.13c0,.4.1.73.3,1,.2.27.53.41.98.41s.74-.15.93-.46Z"/>
    <path class="cls-2" d="M97.26,289.88h1.43c.49,0,.86.17,1.13.52.24.32.36.72.36,1.21,0,.38-.07.72-.21,1.03-.25.54-.68.82-1.28.82h-1.43v-3.59ZM98.6,293.06c.16,0,.29-.02.4-.05.18-.06.34-.19.45-.37.09-.15.16-.33.2-.56.02-.14.04-.26.04-.38,0-.44-.09-.79-.26-1.04-.17-.25-.45-.37-.83-.37h-.84v2.75h.85Z"/>
  </g>
  <g>
    <path class="cls-2" d="M61.04,101.74c.3.29.46.61.5.98h-.57c-.06-.28-.19-.5-.38-.66s-.45-.24-.8-.24c-.42,0-.75.15-1.01.45-.26.3-.38.75-.38,1.37,0,.5.12.91.35,1.23.23.31.58.47,1.03.47.42,0,.74-.17.96-.5.12-.17.2-.4.26-.69h.57c-.05.45-.22.83-.5,1.14-.34.37-.79.55-1.37.55-.49,0-.91-.15-1.25-.45-.44-.4-.66-1.02-.66-1.86,0-.64.17-1.16.5-1.56.36-.44.85-.66,1.49-.66.54,0,.96.14,1.25.43Z"/>
    <path class="cls-2" d="M62.96,101.43v2.66c0,.31.06.57.18.78.18.31.47.47.89.47.5,0,.84-.17,1.02-.51.1-.18.14-.43.14-.74v-2.66h.59v2.42c0,.53-.07.94-.21,1.22-.26.52-.76.78-1.49.78s-1.22-.26-1.48-.78c-.14-.29-.21-.69-.21-1.22v-2.42h.59Z"/>
    <path class="cls-2" d="M69.79,101.43v.51h-1.45v3.79h-.59v-3.79h-1.45v-.51h3.49Z"/>
    <path class="cls-2" d="M75.44,102.04c.29.38.43.87.43,1.46,0,.64-.16,1.18-.49,1.6-.38.5-.93.75-1.64.75-.66,0-1.18-.22-1.56-.66-.34-.42-.51-.96-.51-1.6,0-.58.14-1.08.43-1.49.37-.53.92-.8,1.65-.8s1.32.24,1.69.73ZM74.92,104.79c.23-.37.34-.79.34-1.27,0-.51-.13-.91-.4-1.22-.26-.31-.63-.46-1.08-.46s-.81.15-1.09.46c-.28.31-.42.76-.42,1.35,0,.48.12.88.36,1.21.24.33.63.49,1.17.49s.88-.18,1.11-.55Z"/>
    <path class="cls-2" d="M76.62,101.43h2.99v.53h-2.4v1.31h2.11v.51h-2.11v1.96h-.58v-4.3Z"/>
    <path class="cls-2" d="M80.28,101.43h2.99v.53h-2.4v1.31h2.11v.51h-2.11v1.96h-.58v-4.3Z"/>
    <path class="cls-2" d="M63.5,108.63h2.99v.53h-2.4v1.31h2.11v.51h-2.11v1.96h-.58v-4.3Z"/>
    <path class="cls-2" d="M67.18,108.63h1.96c.32,0,.59.05.8.14.4.18.6.52.6,1.02,0,.26-.05.47-.16.63s-.26.3-.45.4c.17.07.29.16.38.27s.13.29.14.54l.02.58c0,.16.02.29.04.37.04.14.1.22.19.26v.1h-.71s-.04-.08-.05-.14-.02-.17-.03-.34l-.04-.72c-.01-.28-.11-.47-.3-.57-.11-.05-.28-.08-.51-.08h-1.29v1.85h-.58v-4.3ZM69.07,110.6c.27,0,.48-.05.63-.16s.23-.31.23-.59c0-.31-.11-.52-.32-.63-.12-.06-.27-.09-.46-.09h-1.38v1.47h1.31Z"/>
    <path class="cls-2" d="M71.5,108.63h3.12v.53h-2.55v1.31h2.36v.5h-2.36v1.46h2.6v.51h-3.17v-4.3Z"/>
    <path class="cls-2" d="M79.38,112.92l-.29.35-.67-.51c-.16.09-.33.16-.52.21s-.39.08-.61.08c-.67,0-1.19-.22-1.57-.66-.33-.43-.5-.96-.5-1.6,0-.58.14-1.08.43-1.49.37-.53.92-.8,1.65-.8s1.32.24,1.69.73c.29.38.43.87.43,1.46,0,.28-.03.54-.1.8-.1.39-.28.71-.52.96l.59.46ZM77.71,112.52c.11-.02.2-.05.28-.1l-.48-.37.29-.36.56.44c.18-.2.3-.43.36-.68.06-.25.09-.49.09-.72,0-.51-.13-.91-.4-1.22s-.63-.46-1.09-.46-.83.15-1.1.44c-.27.3-.41.75-.41,1.37,0,.52.13.93.39,1.24.26.31.64.46,1.15.46.12,0,.23,0,.34-.03Z"/>
  </g>
  <g>
    <path class="cls-2" d="M102.55,73.66h1.96c.32,0,.59.05.8.14.4.18.6.52.6,1.02,0,.26-.05.47-.16.63s-.25.3-.45.4c.17.07.29.16.38.27s.13.29.14.54l.02.58c0,.16.02.29.04.37.04.14.1.22.19.26v.1h-.71s-.04-.08-.05-.14-.02-.17-.03-.34l-.04-.72c-.01-.28-.12-.47-.3-.57-.11-.05-.28-.08-.51-.08h-1.29v1.85h-.58v-4.3ZM104.45,75.63c.27,0,.48-.05.63-.16.15-.11.23-.31.23-.59,0-.31-.11-.52-.33-.63-.12-.06-.27-.09-.46-.09h-1.38v1.47h1.31Z"/>
    <path class="cls-2" d="M106.87,73.66h3.12v.53h-2.55v1.31h2.36v.5h-2.36v1.46h2.6v.51h-3.17v-4.3Z"/>
    <path class="cls-2" d="M111.2,76.57c.01.24.07.44.17.59.19.29.51.43.99.43.21,0,.4-.03.58-.09.33-.12.5-.34.5-.65,0-.23-.07-.4-.21-.5-.14-.1-.37-.18-.68-.25l-.56-.13c-.37-.09-.63-.18-.78-.28-.27-.18-.4-.45-.4-.81,0-.39.13-.7.39-.95.26-.25.63-.37,1.11-.37.44,0,.81.11,1.12.33.31.22.46.57.46,1.04h-.55c-.03-.23-.09-.41-.18-.53-.17-.22-.46-.34-.87-.34-.33,0-.57.07-.71.22-.14.14-.22.31-.22.5,0,.21.08.37.25.46.11.06.36.14.76.23l.58.14c.28.07.5.16.65.27.26.2.4.49.4.88,0,.48-.17.82-.51,1.02-.34.21-.73.31-1.18.31-.52,0-.93-.14-1.23-.41-.29-.27-.44-.64-.43-1.1h.55Z"/>
    <path class="cls-2" d="M118.36,74.27c.29.38.43.87.43,1.46,0,.64-.16,1.18-.49,1.6-.38.5-.93.75-1.64.75-.66,0-1.18-.22-1.56-.66-.34-.42-.51-.96-.51-1.6,0-.58.14-1.08.43-1.49.37-.53.92-.8,1.65-.8s1.32.24,1.69.73ZM117.85,77.01c.23-.37.34-.79.34-1.27,0-.51-.13-.91-.4-1.22-.26-.31-.63-.46-1.08-.46s-.81.15-1.09.46c-.28.31-.42.76-.42,1.35,0,.48.12.88.36,1.21.24.33.63.49,1.17.49s.88-.18,1.11-.55Z"/>
    <path class="cls-2" d="M119.49,73.66h.69l2.15,3.48v-3.48h.56v4.3h-.66l-2.18-3.47v3.47h-.56v-4.3Z"/>
    <path class="cls-2" d="M125.07,73.66h.66l1.56,4.3h-.64l-.44-1.29h-1.7l-.47,1.29h-.6l1.62-4.3ZM126.03,76.2l-.65-1.9-.69,1.9h1.35Z"/>
    <path class="cls-2" d="M127.82,73.66h.69l2.15,3.48v-3.48h.56v4.3h-.66l-2.18-3.47v3.47h-.56v-4.3Z"/>
    <path class="cls-2" d="M135.2,73.97c.3.29.46.61.5.98h-.57c-.06-.28-.19-.5-.38-.66-.19-.16-.45-.24-.79-.24-.42,0-.75.15-1.01.45-.26.3-.38.75-.38,1.37,0,.5.12.91.35,1.23.23.31.58.47,1.03.47.42,0,.74-.17.96-.5.12-.17.2-.4.26-.69h.57c-.05.45-.22.83-.5,1.14-.34.37-.79.55-1.37.55-.49,0-.91-.15-1.25-.45-.44-.4-.66-1.02-.66-1.86,0-.64.17-1.16.5-1.56.36-.44.85-.66,1.49-.66.54,0,.96.14,1.25.43Z"/>
    <path class="cls-2" d="M136.54,73.66h3.12v.53h-2.55v1.31h2.36v.5h-2.36v1.46h2.6v.51h-3.17v-4.3Z"/>
  </g>
  <g>
    <path class="cls-2" d="M109.25,132.92h3.12v.53h-2.55v1.31h2.36v.5h-2.36v1.46h2.6v.51h-3.17v-4.3Z"/>
    <path class="cls-2" d="M113.2,132.92h.69l2.15,3.48v-3.48h.56v4.3h-.66l-2.18-3.47v3.47h-.56v-4.3Z"/>
    <path class="cls-2" d="M117.87,132.92l1.24,3.67,1.22-3.67h.65l-1.57,4.3h-.62l-1.57-4.3h.64Z"/>
    <path class="cls-2" d="M123.18,132.92h.83l1.24,3.64,1.23-3.64h.83v4.3h-.56v-2.54c0-.09,0-.23,0-.44s0-.42,0-.65l-1.23,3.63h-.58l-1.24-3.63v.13c0,.11,0,.27,0,.48s0,.37,0,.48v2.54h-.56v-4.3Z"/>
    <path class="cls-2" d="M131.74,133.54c.29.38.43.87.43,1.46,0,.64-.16,1.18-.49,1.6-.38.5-.93.75-1.64.75-.66,0-1.18-.22-1.56-.66-.34-.42-.51-.96-.51-1.6,0-.58.14-1.08.43-1.49.37-.53.92-.8,1.65-.8s1.32.24,1.69.73ZM131.23,136.28c.23-.37.34-.79.34-1.27,0-.51-.13-.91-.4-1.22-.26-.31-.63-.46-1.08-.46s-.81.15-1.09.46c-.28.31-.42.76-.42,1.35,0,.48.12.88.36,1.21.24.33.63.49,1.17.49s.88-.18,1.11-.55Z"/>
    <path class="cls-2" d="M132.89,132.92h1.72c.58,0,1.04.21,1.36.63.29.38.43.86.43,1.46,0,.46-.08.87-.25,1.24-.3.65-.81.98-1.54.98h-1.71v-4.3ZM134.5,136.73c.19,0,.35-.02.48-.06.22-.08.4-.22.54-.44.11-.17.19-.4.24-.67.03-.16.04-.31.04-.45,0-.53-.1-.95-.31-1.24-.21-.29-.54-.44-1-.44h-1.01v3.3h1.02Z"/>
  </g>
  <g>
    <path class="cls-2" d="M111.66,192.22h.66l1.56,4.3h-.64l-.44-1.29h-1.7l-.47,1.29h-.6l1.62-4.3ZM112.62,194.76l-.65-1.9-.69,1.9h1.35Z"/>
    <path class="cls-2" d="M117.45,192.53c.3.29.46.61.5.98h-.57c-.06-.28-.19-.5-.38-.66-.19-.16-.45-.24-.79-.24-.42,0-.75.15-1.01.45-.26.3-.38.75-.38,1.37,0,.5.12.91.35,1.23s.58.47,1.03.47c.42,0,.74-.17.96-.5.12-.17.2-.4.26-.69h.57c-.05.45-.22.83-.5,1.14-.34.37-.79.55-1.37.55-.49,0-.91-.15-1.25-.46-.44-.4-.66-1.02-.66-1.86,0-.63.17-1.16.5-1.56.36-.44.85-.66,1.49-.66.54,0,.96.14,1.25.43Z"/>
    <path class="cls-2" d="M121.79,192.53c.3.29.46.61.5.98h-.57c-.06-.28-.19-.5-.38-.66-.19-.16-.45-.24-.79-.24-.42,0-.75.15-1.01.45-.26.3-.38.75-.38,1.37,0,.5.12.91.35,1.23s.58.47,1.03.47c.42,0,.74-.17.96-.5.12-.17.2-.4.26-.69h.57c-.05.45-.22.83-.5,1.14-.34.37-.79.55-1.37.55-.49,0-.91-.15-1.25-.46-.44-.4-.66-1.02-.66-1.86,0-.63.17-1.16.5-1.56.36-.44.85-.66,1.49-.66.54,0,.96.14,1.25.43Z"/>
    <path class="cls-2" d="M123.13,192.22h3.12v.53h-2.55v1.31h2.36v.5h-2.36v1.46h2.6v.51h-3.17v-4.3Z"/>
    <path class="cls-2" d="M127.08,192.22h.69l2.15,3.48v-3.48h.56v4.3h-.66l-2.18-3.47v3.47h-.56v-4.3Z"/>
    <path class="cls-2" d="M134.54,192.22v.51h-1.45v3.79h-.59v-3.79h-1.45v-.51h3.49Z"/>
  </g>
  <g>
    <path class="cls-2" d="M58.76,160.04l1.24,3.67,1.22-3.67h.65l-1.57,4.3h-.62l-1.57-4.3h.64Z"/>
    <path class="cls-2" d="M65.97,160.65c.29.38.43.87.43,1.46,0,.64-.16,1.18-.49,1.6-.38.5-.93.75-1.64.75-.66,0-1.18-.22-1.56-.66-.34-.42-.51-.96-.51-1.6,0-.58.14-1.08.43-1.49.37-.53.92-.8,1.65-.8s1.32.24,1.69.73ZM65.45,163.39c.23-.37.34-.79.34-1.27,0-.51-.13-.91-.4-1.22-.26-.31-.63-.46-1.09-.46s-.81.15-1.09.46c-.28.31-.42.76-.42,1.35,0,.48.12.88.36,1.21.24.33.63.49,1.17.49s.89-.18,1.11-.55Z"/>
    <path class="cls-2" d="M67.09,160.04h.58v3.79h2.16v.51h-2.74v-4.3Z"/>
    <path class="cls-2" d="M71.06,160.04v2.66c0,.31.06.57.18.78.18.31.47.47.89.47.5,0,.84-.17,1.02-.51.1-.18.14-.43.14-.74v-2.66h.59v2.42c0,.53-.07.94-.21,1.22-.26.52-.76.78-1.49.78s-1.22-.26-1.48-.78c-.14-.29-.21-.69-.21-1.22v-2.42h.59Z"/>
    <path class="cls-2" d="M74.74,160.04h.83l1.24,3.64,1.23-3.64h.83v4.3h-.56v-2.54c0-.09,0-.23,0-.44s0-.42,0-.65l-1.23,3.63h-.58l-1.24-3.63v.13c0,.11,0,.27,0,.48s0,.37,0,.48v2.54h-.56v-4.3Z"/>
    <path class="cls-2" d="M79.81,160.04h3.12v.53h-2.55v1.31h2.36v.5h-2.36v1.46h2.6v.51h-3.17v-4.3Z"/>
  </g>
  <g>
    <path class="cls-2" d="M11.25,133.67h1.72c.58,0,1.04.21,1.36.63.29.38.43.86.43,1.46,0,.46-.08.87-.25,1.24-.3.65-.81.98-1.54.98h-1.71v-4.3ZM12.85,137.47c.19,0,.35-.02.48-.06.22-.08.4-.22.54-.44.11-.17.19-.4.24-.67.03-.16.04-.31.04-.45,0-.53-.1-.95-.31-1.24-.21-.29-.54-.44-1-.44h-1.01v3.3h1.02Z"/>
    <path class="cls-2" d="M15.61,133.67h3.12v.53h-2.55v1.31h2.36v.5h-2.36v1.46h2.6v.51h-3.17v-4.3Z"/>
    <path class="cls-2" d="M22.6,133.98c.3.29.46.61.5.98h-.57c-.06-.28-.19-.5-.38-.66s-.45-.24-.8-.24c-.42,0-.75.15-1.01.45-.26.3-.38.75-.38,1.37,0,.5.12.91.35,1.23.23.31.58.47,1.03.47.42,0,.74-.17.96-.5.12-.17.2-.4.26-.69h.57c-.05.45-.22.83-.5,1.14-.34.37-.79.55-1.37.55-.49,0-.91-.15-1.25-.45-.44-.4-.66-1.02-.66-1.86,0-.64.17-1.16.5-1.56.36-.44.85-.66,1.49-.66.54,0,.96.14,1.25.43Z"/>
    <path class="cls-2" d="M25.14,133.67h.66l1.56,4.3h-.64l-.44-1.29h-1.7l-.47,1.29h-.6l1.62-4.3ZM26.1,136.21l-.65-1.9-.69,1.9h1.35Z"/>
    <path class="cls-2" d="M27.12,133.67h.68l1.24,2.07,1.24-2.07h.69l-1.63,2.57v1.73h-.58v-1.73l-1.63-2.57Z"/>
  </g>
  <polygon class="cls-1" points="8.04 167.54 3.35 163.94 3.35 167.17 2.95 167.17 2.95 163.13 7.75 166.81 8.3 163.14 12.76 167.02 12.5 167.32 8.59 163.92 8.04 167.54"/>
  <polygon class="cls-1" points="44.76 167.27 42.25 167.27 42.25 163.63 39.66 163.63 39.66 167.27 36.26 167.27 36.26 163.63 33.67 163.63 33.67 167.07 33.27 167.07 33.27 163.23 36.66 163.23 36.66 166.87 39.26 166.87 39.26 163.23 42.65 163.23 42.65 166.87 44.76 166.87 44.76 167.27"/>
  <g>
    <rect class="cls-2" x="19.84" y="35.15" width="2.65" height="4.6"/>
    <rect class="cls-1" x="33.05" y="52.4" width="3.94" height=".25"/>
    <rect class="cls-1" x="5.35" y="52.4" width="3.94" height=".25"/>
    <g>
      <line class="cls-2" x1="6.89" y1="44.17" x2="10.3" y2="46.14"/>
      <rect class="cls-1" x="8.47" y="43.19" width=".25" height="3.94" transform="translate(-34.81 30.03) rotate(-60)"/>
    </g>
    <g>
      <line class="cls-2" x1="6.55" y1="60.52" x2="9.96" y2="58.55"/>
      <rect class="cls-1" x="6.28" y="59.41" width="3.94" height=".25" transform="translate(-28.63 12.08) rotate(-29.97)"/>
    </g>
    <g>
      <line class="cls-2" x1="32.38" y1="58.55" x2="35.79" y2="60.52"/>
      <rect class="cls-1" x="33.96" y="57.56" width=".25" height="3.94" transform="translate(-34.51 59.28) rotate(-60)"/>
    </g>
    <g>
      <line class="cls-2" x1="28.02" y1="62.87" x2="29.99" y2="66.28"/>
      <rect class="cls-1" x="28.88" y="62.61" width=".25" height="3.94" transform="translate(-28.4 23.15) rotate(-30)"/>
    </g>
    <g>
      <line class="cls-2" x1="12.35" y1="66.28" x2="14.32" y2="62.87"/>
      <rect class="cls-1" x="11.37" y="64.45" width="3.94" height=".25" transform="translate(-49.27 43.87) rotate(-60.03)"/>
    </g>
    <g>
      <line class="cls-2" x1="12.35" y1="38.05" x2="14.32" y2="41.46"/>
      <rect class="cls-1" x="13.21" y="37.78" width=".25" height="3.94" transform="translate(-18.09 11.99) rotate(-30)"/>
    </g>
    <g>
      <line class="cls-2" x1="32.03" y1="46.14" x2="35.44" y2="44.17"/>
      <rect class="cls-1" x="31.77" y="45.03" width="3.94" height=".25" transform="translate(-18.05 22.89) rotate(-29.97)"/>
    </g>
    <g>
      <line class="cls-2" x1="28.02" y1="41.46" x2="29.99" y2="38.05"/>
      <rect class="cls-1" x="27.04" y="39.63" width="3.94" height=".25" transform="translate(-19.92 45.02) rotate(-60.03)"/>
    </g>
  </g>
  <g>
    <rect class="cls-2" x="120.9" y="35.15" width="2.65" height="4.6"/>
    <rect class="cls-1" x="134.11" y="52.4" width="3.94" height=".25"/>
    <rect class="cls-1" x="106.41" y="52.4" width="3.94" height=".25"/>
    <g>
      <line class="cls-2" x1="107.96" y1="44.17" x2="111.37" y2="46.14"/>
      <rect class="cls-1" x="109.54" y="43.19" width=".25" height="3.94" transform="translate(15.71 117.54) rotate(-59.99)"/>
    </g>
    <g>
      <line class="cls-2" x1="107.61" y1="60.52" x2="111.02" y2="58.55"/>
      <rect class="cls-1" x="107.34" y="59.41" width="3.94" height=".25" transform="translate(-15.12 62.56) rotate(-29.97)"/>
    </g>
    <g>
      <line class="cls-2" x1="133.44" y1="58.55" x2="136.85" y2="60.52"/>
      <rect class="cls-1" x="135.02" y="57.56" width=".25" height="3.94" transform="translate(16.01 146.8) rotate(-59.99)"/>
    </g>
    <g>
      <line class="cls-2" x1="129.08" y1="62.87" x2="131.05" y2="66.28"/>
      <rect class="cls-1" x="129.94" y="62.61" width=".25" height="3.94" transform="translate(-14.86 73.68) rotate(-30)"/>
    </g>
    <g>
      <line class="cls-2" x1="113.41" y1="66.28" x2="115.38" y2="62.87"/>
      <rect class="cls-1" x="112.43" y="64.45" width="3.94" height=".25" transform="translate(1.31 131.42) rotate(-60.03)"/>
    </g>
    <g>
      <line class="cls-2" x1="113.41" y1="38.05" x2="115.38" y2="41.46"/>
      <rect class="cls-1" x="114.27" y="37.78" width=".25" height="3.94" transform="translate(-4.55 62.52) rotate(-30)"/>
    </g>
    <g>
      <line class="cls-2" x1="133.09" y1="46.14" x2="136.5" y2="44.17"/>
      <rect class="cls-1" x="132.83" y="45.03" width="3.94" height=".25" transform="translate(-4.54 73.37) rotate(-29.97)"/>
    </g>
    <g>
      <line class="cls-2" x1="129.08" y1="41.46" x2="131.05" y2="38.05"/>
      <rect class="cls-1" x="128.1" y="39.63" width="3.94" height=".25" transform="translate(30.66 132.57) rotate(-60.03)"/>
    </g>
  </g>
  <g>
    <rect class="cls-2" x="69.01" y="64.03" width="2.65" height="4.6"/>
    <rect class="cls-1" x="82.21" y="81.28" width="3.94" height=".25"/>
    <rect class="cls-1" x="54.52" y="81.28" width="3.94" height=".25"/>
    <g>
      <line class="cls-2" x1="56.06" y1="73.05" x2="59.47" y2="75.02"/>
      <rect class="cls-1" x="57.64" y="72.07" width=".25" height="3.94" transform="translate(-35.23 87.04) rotate(-60)"/>
    </g>
    <g>
      <line class="cls-2" x1="55.71" y1="89.39" x2="59.12" y2="87.43"/>
      <rect class="cls-1" x="55.45" y="88.28" width="3.94" height=".25" transform="translate(-36.48 40.5) rotate(-29.97)"/>
    </g>
    <g>
      <line class="cls-2" x1="81.55" y1="87.43" x2="84.96" y2="89.39"/>
      <rect class="cls-1" x="83.13" y="86.44" width=".25" height="3.94" transform="translate(-34.94 116.31) rotate(-60)"/>
    </g>
    <g>
      <line class="cls-2" x1="77.18" y1="91.75" x2="79.15" y2="95.16"/>
      <rect class="cls-1" x="78.04" y="91.48" width=".25" height="3.94" transform="translate(-36.26 51.61) rotate(-30)"/>
    </g>
    <g>
      <line class="cls-2" x1="61.51" y1="95.16" x2="63.48" y2="91.75"/>
      <rect class="cls-1" x="60.53" y="93.33" width="3.94" height=".25" transform="translate(-49.68 100.92) rotate(-60.03)"/>
    </g>
    <g>
      <line class="cls-2" x1="61.52" y1="66.92" x2="63.48" y2="70.33"/>
      <rect class="cls-1" x="62.37" y="66.66" width=".25" height="3.94" transform="translate(-25.94 40.44) rotate(-30)"/>
    </g>
    <g>
      <line class="cls-2" x1="81.2" y1="75.02" x2="84.61" y2="73.05"/>
      <rect class="cls-1" x="80.93" y="73.91" width="3.94" height=".25" transform="translate(-25.9 51.31) rotate(-29.97)"/>
    </g>
    <g>
      <line class="cls-2" x1="77.18" y1="70.33" x2="79.15" y2="66.92"/>
      <rect class="cls-1" x="76.2" y="68.5" width="3.94" height=".25" transform="translate(-20.33 102.07) rotate(-60.03)"/>
    </g>
  </g>
  <g>
    <rect class="cls-2" x="19.84" y="94.74" width="2.65" height="4.6"/>
    <rect class="cls-1" x="33.05" y="111.99" width="3.94" height=".25"/>
    <rect class="cls-1" x="5.35" y="111.99" width="3.94" height=".25"/>
    <g>
      <line class="cls-2" x1="6.9" y1="103.76" x2="10.31" y2="105.73"/>
      <rect class="cls-1" x="8.48" y="102.78" width=".25" height="3.94" transform="translate(-86.41 59.82) rotate(-60)"/>
    </g>
    <g>
      <line class="cls-2" x1="6.55" y1="120.11" x2="9.96" y2="118.14"/>
      <rect class="cls-1" x="6.28" y="119" width="3.94" height=".25" transform="translate(-58.4 20.05) rotate(-29.97)"/>
    </g>
    <g>
      <line class="cls-2" x1="32.38" y1="118.14" x2="35.79" y2="120.11"/>
      <rect class="cls-1" x="33.96" y="117.15" width=".25" height="3.94" transform="translate(-86.12 89.08) rotate(-60)"/>
    </g>
    <g>
      <line class="cls-2" x1="28.02" y1="122.46" x2="29.99" y2="125.87"/>
      <rect class="cls-1" x="28.88" y="122.2" width=".25" height="3.94" transform="translate(-58.19 31.14) rotate(-30)"/>
    </g>
    <g>
      <line class="cls-2" x1="12.35" y1="125.87" x2="14.32" y2="122.46"/>
      <rect class="cls-1" x="11.37" y="124.04" width="3.94" height=".25" transform="translate(-100.89 73.7) rotate(-60.03)"/>
    </g>
    <g>
      <line class="cls-2" x1="12.35" y1="97.64" x2="14.32" y2="101.05"/>
      <rect class="cls-1" x="13.21" y="97.37" width=".25" height="3.94" transform="translate(-47.88 19.98) rotate(-30)"/>
    </g>
    <g>
      <line class="cls-2" x1="32.03" y1="105.73" x2="35.44" y2="103.76"/>
      <rect class="cls-1" x="31.77" y="104.62" width="3.94" height=".25" transform="translate(-47.81 30.86) rotate(-29.97)"/>
    </g>
    <g>
      <line class="cls-2" x1="28.02" y1="101.05" x2="29.99" y2="97.64"/>
      <rect class="cls-1" x="27.04" y="99.21" width="3.94" height=".25" transform="translate(-71.54 74.85) rotate(-60.03)"/>
    </g>
  </g>
  <g>
    <rect class="cls-2" x="120.64" y="94.74" width="2.65" height="4.6"/>
    <rect class="cls-1" x="133.85" y="111.99" width="3.94" height=".25"/>
    <rect class="cls-1" x="106.15" y="111.99" width="3.94" height=".25"/>
    <g>
      <line class="cls-2" x1="107.7" y1="103.76" x2="111.11" y2="105.73"/>
      <rect class="cls-1" x="109.28" y="102.78" width=".25" height="3.94" transform="translate(-36.01 147.12) rotate(-60)"/>
    </g>
    <g>
      <line class="cls-2" x1="107.35" y1="120.11" x2="110.76" y2="118.14"/>
      <rect class="cls-1" x="107.08" y="119" width="3.94" height=".25" transform="translate(-44.92 70.4) rotate(-29.97)"/>
    </g>
    <g>
      <line class="cls-2" x1="133.18" y1="118.14" x2="136.59" y2="120.11"/>
      <rect class="cls-1" x="134.76" y="117.15" width=".25" height="3.94" transform="translate(-35.72 176.38) rotate(-60)"/>
    </g>
    <g>
      <line class="cls-2" x1="128.82" y1="122.46" x2="130.79" y2="125.87"/>
      <rect class="cls-1" x="129.68" y="122.2" width=".25" height="3.94" transform="translate(-44.69 81.53) rotate(-30)"/>
    </g>
    <g>
      <line class="cls-2" x1="113.15" y1="125.87" x2="115.12" y2="122.46"/>
      <rect class="cls-1" x="112.17" y="124.04" width="3.94" height=".25" transform="translate(-50.44 161.02) rotate(-60.03)"/>
    </g>
    <g>
      <line class="cls-2" x1="113.15" y1="97.64" x2="115.12" y2="101.05"/>
      <rect class="cls-1" x="114.01" y="97.37" width=".25" height="3.94" transform="translate(-34.38 70.37) rotate(-30)"/>
    </g>
    <g>
      <line class="cls-2" x1="132.83" y1="105.73" x2="136.24" y2="103.76"/>
      <rect class="cls-1" x="132.57" y="104.62" width="3.94" height=".25" transform="translate(-34.34 81.21) rotate(-29.97)"/>
    </g>
    <g>
      <line class="cls-2" x1="128.82" y1="101.05" x2="130.79" y2="97.64"/>
      <rect class="cls-1" x="127.84" y="99.21" width="3.94" height=".25" transform="translate(-21.09 162.17) rotate(-60.03)"/>
    </g>
  </g>
  <g>
    <rect class="cls-2" x="69.01" y="122.18" width="2.65" height="4.6"/>
    <rect class="cls-1" x="82.21" y="139.43" width="3.94" height=".25"/>
    <rect class="cls-1" x="54.52" y="139.43" width="3.94" height=".25"/>
    <g>
      <line class="cls-2" x1="56.06" y1="131.2" x2="59.47" y2="133.17"/>
      <rect class="cls-1" x="57.64" y="130.22" width=".25" height="3.94" transform="translate(-85.6 116.13) rotate(-60)"/>
    </g>
    <g>
      <line class="cls-2" x1="55.71" y1="147.55" x2="59.12" y2="145.58"/>
      <rect class="cls-1" x="55.45" y="146.44" width="3.94" height=".25" transform="translate(-65.53 48.27) rotate(-29.97)"/>
    </g>
    <g>
      <line class="cls-2" x1="81.55" y1="145.58" x2="84.96" y2="147.55"/>
      <rect class="cls-1" x="83.13" y="144.59" width=".25" height="3.94" transform="translate(-85.3 145.39) rotate(-60)"/>
    </g>
    <g>
      <line class="cls-2" x1="77.19" y1="149.9" x2="79.16" y2="153.31"/>
      <rect class="cls-1" x="78.05" y="149.64" width=".25" height="3.94" transform="translate(-65.33 59.39) rotate(-30)"/>
    </g>
    <g>
      <line class="cls-2" x1="61.52" y1="153.31" x2="63.49" y2="149.9"/>
      <rect class="cls-1" x="60.53" y="151.48" width="3.94" height=".25" transform="translate(-100.06 130.03) rotate(-60.03)"/>
    </g>
    <g>
      <line class="cls-2" x1="61.52" y1="125.08" x2="63.49" y2="128.49"/>
      <rect class="cls-1" x="62.38" y="124.81" width=".25" height="3.94" transform="translate(-55.02 48.23) rotate(-30)"/>
    </g>
    <g>
      <line class="cls-2" x1="81.2" y1="133.17" x2="84.61" y2="131.21"/>
      <rect class="cls-1" x="80.94" y="132.06" width="3.94" height=".25" transform="translate(-54.95 59.08) rotate(-29.97)"/>
    </g>
    <g>
      <line class="cls-2" x1="77.19" y1="128.49" x2="79.16" y2="125.08"/>
      <rect class="cls-1" x="76.2" y="126.66" width="3.94" height=".25" transform="translate(-70.71 131.17) rotate(-60.03)"/>
    </g>
  </g>
  <g>
    <rect class="cls-2" x="120.91" y="154.33" width="2.65" height="4.6"/>
    <rect class="cls-1" x="134.11" y="171.58" width="3.94" height=".25"/>
    <rect class="cls-1" x="106.41" y="171.58" width="3.94" height=".25"/>
    <g>
      <line class="cls-2" x1="107.96" y1="163.35" x2="111.37" y2="165.32"/>
      <rect class="cls-1" x="109.54" y="162.37" width=".25" height="3.94" transform="translate(-87.49 177.14) rotate(-60)"/>
    </g>
    <g>
      <line class="cls-2" x1="107.61" y1="179.7" x2="111.02" y2="177.73"/>
      <rect class="cls-1" x="107.35" y="178.59" width="3.94" height=".25" transform="translate(-74.65 78.49) rotate(-29.97)"/>
    </g>
    <g>
      <line class="cls-2" x1="133.44" y1="177.73" x2="136.85" y2="179.7"/>
      <rect class="cls-1" x="135.02" y="176.74" width=".25" height="3.94" transform="translate(-87.2 206.38) rotate(-59.99)"/>
    </g>
    <g>
      <line class="cls-2" x1="129.08" y1="182.05" x2="131.05" y2="185.46"/>
      <rect class="cls-1" x="129.94" y="181.79" width=".25" height="3.94" transform="translate(-74.45 89.65) rotate(-30)"/>
    </g>
    <g>
      <line class="cls-2" x1="113.41" y1="185.46" x2="115.38" y2="182.05"/>
      <rect class="cls-1" x="112.43" y="183.63" width="3.94" height=".25" transform="translate(-101.93 191.07) rotate(-60.03)"/>
    </g>
    <g>
      <line class="cls-2" x1="113.41" y1="157.23" x2="115.38" y2="160.64"/>
      <rect class="cls-1" x="114.27" y="156.96" width=".25" height="3.94" transform="translate(-64.14 78.49) rotate(-30)"/>
    </g>
    <g>
      <line class="cls-2" x1="133.1" y1="165.32" x2="136.51" y2="163.35"/>
      <rect class="cls-1" x="132.83" y="164.21" width="3.94" height=".25" transform="translate(-64.07 89.3) rotate(-29.97)"/>
    </g>
    <g>
      <line class="cls-2" x1="129.08" y1="160.63" x2="131.05" y2="157.22"/>
      <rect class="cls-1" x="128.1" y="158.8" width="3.94" height=".25" transform="translate(-72.58 192.22) rotate(-60.03)"/>
    </g>
  </g>
  <path class="cls-2" d="M83.67,335.01c.27.31.4.72.4,1.22s-.11.91-.34,1.27c-.23.37-.6.56-1.12.56s-.93-.17-1.17-.49c-.24-.33-.36-.73-.36-1.21,0-.6.14-1.05.42-1.35.28-.31.64-.46,1.09-.46s.82.15,1.08.46Z"/>
  <path class="cls-2" d="M120.75,335.01c-.27-.31-.63-.46-1.09-.46s-.81.15-1.09.46c-.28.3-.42.75-.42,1.35,0,.48.12.88.36,1.21.24.32.63.49,1.17.49s.89-.19,1.12-.56c.23-.36.34-.79.34-1.27s-.13-.91-.39-1.22ZM120.75,335.01c-.27-.31-.63-.46-1.09-.46s-.81.15-1.09.46c-.28.3-.42.75-.42,1.35,0,.48.12.88.36,1.21.24.32.63.49,1.17.49s.89-.19,1.12-.56c.23-.36.34-.79.34-1.27s-.13-.91-.39-1.22ZM120.75,335.01c-.27-.31-.63-.46-1.09-.46s-.81.15-1.09.46c-.28.3-.42.75-.42,1.35,0,.48.12.88.36,1.21.24.32.63.49,1.17.49s.89-.19,1.12-.56c.23-.36.34-.79.34-1.27s-.13-.91-.39-1.22ZM120.75,335.01c-.27-.31-.63-.46-1.09-.46s-.81.15-1.09.46c-.28.3-.42.75-.42,1.35,0,.48.12.88.36,1.21.24.32.63.49,1.17.49s.89-.19,1.12-.56c.23-.36.34-.79.34-1.27s-.13-.91-.39-1.22ZM140.64,328.03h-69.69c-1.14,0-2.06-.92-2.06-2.06v-25.06H1.73v40.8c0,1.13.92,2.06,2.06,2.06h136.85c1.13,0,2.05-.93,2.05-2.06v-11.62c0-1.14-.92-2.06-2.05-2.06ZM84.18,337.83c-.38.5-.93.75-1.64.75-.66,0-1.18-.22-1.56-.66-.34-.42-.51-.96-.51-1.6,0-.58.15-1.08.44-1.49.37-.54.92-.8,1.64-.8.76,0,1.33.24,1.69.73.29.38.43.87.43,1.46,0,.65-.16,1.18-.49,1.61ZM88.81,336.56c0,.53-.08.94-.22,1.22-.26.52-.76.78-1.49.78s-1.22-.26-1.48-.78c-.14-.28-.22-.69-.22-1.22v-2.41h.59v2.66c0,.31.06.57.18.78.18.31.47.46.89.46.49,0,.83-.17,1.01-.5.1-.19.15-.43.15-.74v-2.66h.59v2.41ZM92.83,334.66h-1.45v3.79h-.59v-3.79h-1.45v-.51h3.49v.51ZM97.67,338.45h-2.75v-4.3h.59v3.79h2.16v.51ZM121.25,337.83c-.38.5-.93.75-1.64.75-.66,0-1.18-.22-1.56-.66-.33-.42-.5-.96-.5-1.6,0-.58.14-1.08.43-1.49.37-.54.92-.8,1.65-.8s1.32.24,1.68.73c.29.38.43.87.43,1.46,0,.65-.16,1.18-.49,1.61ZM125.88,336.56c0,.53-.07.94-.22,1.22-.26.52-.75.78-1.48.78s-1.23-.26-1.49-.78c-.14-.28-.21-.69-.21-1.22v-2.41h.59v2.66c0,.31.06.57.17.78.18.31.47.46.89.46.5,0,.84-.17,1.01-.5.1-.19.15-.43.15-.74v-2.66h.59v2.41ZM129.9,334.66h-1.45v3.79h-.59v-3.79h-1.45v-.51h3.49v.51ZM135.58,338.45h-.72s-.03-.09-.04-.14c-.01-.06-.02-.18-.03-.34l-.04-.72c-.01-.28-.11-.47-.3-.57-.11-.05-.28-.08-.51-.08h-1.29v1.85h-.58v-4.3h1.95c.32,0,.59.04.8.14.4.18.59.52.59,1.02,0,.25-.05.46-.15.63-.11.16-.26.29-.45.39.17.07.29.16.38.27.08.11.13.3.14.55l.02.57c.01.17.02.29.04.37.04.14.1.22.19.26v.1ZM134.5,334.73c-.12-.05-.27-.08-.47-.08h-1.38v1.47h1.31c.26,0,.48-.06.63-.17.16-.11.23-.3.23-.59,0-.31-.11-.51-.32-.63ZM119.66,334.55c-.44,0-.81.15-1.09.46-.28.3-.42.75-.42,1.35,0,.48.12.88.36,1.21.24.32.63.49,1.17.49s.89-.19,1.12-.56c.23-.36.34-.79.34-1.27s-.13-.91-.39-1.22c-.27-.31-.63-.46-1.09-.46ZM120.75,335.01c-.27-.31-.63-.46-1.09-.46s-.81.15-1.09.46c-.28.3-.42.75-.42,1.35,0,.48.12.88.36,1.21.24.32.63.49,1.17.49s.89-.19,1.12-.56c.23-.36.34-.79.34-1.27s-.13-.91-.39-1.22ZM120.75,335.01c-.27-.31-.63-.46-1.09-.46s-.81.15-1.09.46c-.28.3-.42.75-.42,1.35,0,.48.12.88.36,1.21.24.32.63.49,1.17.49s.89-.19,1.12-.56c.23-.36.34-.79.34-1.27s-.13-.91-.39-1.22Z"/>
  <path class="cls-2" d="M121.73,290.76c-.1-.05-.22-.07-.39-.07h-1.15v1.22h1.09c.22,0,.4-.04.53-.13.13-.09.19-.26.19-.5s-.09-.43-.27-.52ZM121.73,290.76c-.1-.05-.22-.07-.39-.07h-1.15v1.22h1.09c.22,0,.4-.04.53-.13.13-.09.19-.26.19-.5s-.09-.43-.27-.52ZM121.73,290.76c-.1-.05-.22-.07-.39-.07h-1.15v1.22h1.09c.22,0,.4-.04.53-.13.13-.09.19-.26.19-.5s-.09-.43-.27-.52ZM121.73,290.76c-.1-.05-.22-.07-.39-.07h-1.15v1.22h1.09c.22,0,.4-.04.53-.13.13-.09.19-.26.19-.5s-.09-.43-.27-.52ZM114.82,288.82v6.65h21.5v-6.65h-21.5ZM119.2,290.7h-1.21v3.16h-.49v-3.16h-1.21v-.43h2.91v.43ZM122.63,293.86h-.59s-.03-.07-.04-.12c0-.05-.02-.15-.03-.29l-.03-.59c-.01-.24-.09-.4-.25-.48-.09-.04-.23-.06-.42-.06h-1.08v1.54h-.48v-3.59h1.62c.27,0,.5.04.67.12.33.15.5.44.5.85,0,.21-.05.39-.14.52-.09.14-.21.25-.37.33.14.06.25.14.32.23.07.09.11.24.11.45l.02.48c.01.14.02.24.04.31.03.11.08.18.15.22v.08ZM123.86,293.86h-.49v-3.59h.49v3.59ZM127.74,293.86h-.32l-.11-.46c-.16.18-.31.3-.43.37-.21.12-.48.18-.8.18-.42,0-.78-.14-1.08-.41-.33-.35-.49-.82-.49-1.42s.16-1.08.48-1.44c.3-.33.7-.5,1.18-.5.33,0,.62.06.86.19.35.19.57.52.65.99h-.48c-.06-.27-.18-.46-.36-.58s-.41-.18-.68-.18c-.33,0-.6.13-.82.38-.22.25-.33.62-.33,1.11,0,.43.09.78.27,1.04.18.27.48.4.9.4.32,0,.58-.09.79-.28.2-.19.31-.49.32-.91h-1.13v-.4h1.58v1.92ZM130.53,293.86h-.49v-3.59h.49v3.59ZM134.14,293.86h-.55l-1.81-2.9v2.9h-.47v-3.59h.58l1.79,2.9v-2.9h.46v3.59ZM121.73,290.76c-.1-.05-.22-.07-.39-.07h-1.15v1.22h1.09c.22,0,.4-.04.53-.13.13-.09.19-.26.19-.5s-.09-.43-.27-.52ZM121.73,290.76c-.1-.05-.22-.07-.39-.07h-1.15v1.22h1.09c.22,0,.4-.04.53-.13.13-.09.19-.26.19-.5s-.09-.43-.27-.52ZM121.73,290.76c-.1-.05-.22-.07-.39-.07h-1.15v1.22h1.09c.22,0,.4-.04.53-.13.13-.09.19-.26.19-.5s-.09-.43-.27-.52ZM121.73,290.76c-.1-.05-.22-.07-.39-.07h-1.15v1.22h1.09c.22,0,.4-.04.53-.13.13-.09.19-.26.19-.5s-.09-.43-.27-.52ZM121.73,290.76c-.1-.05-.22-.07-.39-.07h-1.15v1.22h1.09c.22,0,.4-.04.53-.13.13-.09.19-.26.19-.5s-.09-.43-.27-.52Z"/>
  <g>
    <path class="cls-2" d="M65.49,209.85h.69l2.15,3.48v-3.48h.56v4.3h-.65l-2.18-3.47v3.47h-.56v-4.3Z"/>
    <path class="cls-2" d="M73.37,210.47c.29.38.43.87.43,1.46,0,.64-.16,1.18-.49,1.6-.38.5-.93.75-1.64.75-.66,0-1.18-.22-1.56-.66-.34-.42-.51-.96-.51-1.6,0-.58.14-1.08.43-1.49.37-.53.92-.8,1.65-.8s1.32.24,1.69.73ZM72.85,213.21c.23-.37.34-.79.34-1.27,0-.51-.13-.91-.4-1.22-.26-.31-.63-.46-1.09-.46s-.81.15-1.09.46-.42.76-.42,1.35c0,.48.12.88.36,1.21s.63.49,1.17.49.89-.18,1.11-.55Z"/>
    <path class="cls-2" d="M77.62,209.85v.51h-1.45v3.79h-.59v-3.79h-1.45v-.51h3.49Z"/>
    <path class="cls-2" d="M78.21,209.85h3.12v.53h-2.55v1.31h2.36v.5h-2.36v1.46h2.6v.51h-3.17v-4.3Z"/>
  </g>
  <path class="cls-1" d="M142.09,345.03H4.04c-1.82,0-3.31-1.48-3.31-3.31v-41.02h.25v41.02c0,1.69,1.37,3.06,3.06,3.06h138.05v.25Z"/>
</svg>